<mxfile host="app.diagrams.net" modified="2022-03-11T15:50:46.344Z" agent="5.0 (Macintosh; Intel Mac OS X 10_15_7) AppleWebKit/537.36 (KHTML, like Gecko) Chrome/99.0.4844.51 Safari/537.36" etag="lXfcnL6vUi-bw-AUuHqQ" version="17.0.0" type="github">
  <diagram id="4-0ibP7jyttyZsECtZv_" name="Page-1">
    <mxGraphModel dx="2755" dy="2256" grid="1" gridSize="10" guides="1" tooltips="1" connect="1" arrows="1" fold="1" page="1" pageScale="1" pageWidth="1169" pageHeight="827" math="0" shadow="0">
      <root>
        <mxCell id="0" />
        <mxCell id="1" parent="0" />
        <mxCell id="qvyCjxB70agYPjTjunsr-10" value="" style="rounded=1;whiteSpace=wrap;html=1;fillColor=#ffe6cc;strokeColor=none;arcSize=16;" vertex="1" parent="1">
          <mxGeometry y="-420" width="1070" height="340" as="geometry" />
        </mxCell>
        <mxCell id="ap4Xrjzt4KRfhGc9eB9q-2" value="" style="rounded=1;whiteSpace=wrap;html=1;fillColor=#dae8fc;strokeColor=none;gradientColor=none;arcSize=9;" parent="1" vertex="1">
          <mxGeometry y="-50" width="1070" height="820" as="geometry" />
        </mxCell>
        <mxCell id="ap4Xrjzt4KRfhGc9eB9q-5" value="" style="shape=image;verticalLabelPosition=bottom;labelBackgroundColor=default;verticalAlign=top;aspect=fixed;imageAspect=0;image=data:image/png,iVBORw0KGgoAAAANSUhEUgAAAcwAAAHMCAYAAABY25iGAACAAElEQVR4nOzdCXhU1fUA8JM9Q+aFLCA+JqjQLIDV2uTfGWdGixbbapuAIC61rVUbtLh1eUlcWhVtiwo8l6rggvtalqQhUWwrikBmnBHQigSysMkMj+zLe8lM9v/3JoMiQpi582bum5nz+z6+Vpg79xBm3nn33XvPjb///vsBIURPenaRLjkz90YAiD3FS4cA4FXBxn8ZotAQQseIoR0AQtFEqzMmMzrTnVqdcQKTZbotwLf7TLDx/wKAdwQ7v02hEBFCJ4EJE6EgY/XcX7Q642Qmy7QomP10NFStdrfXrxXs/Jpg9oNQtMKEiVAQaHXGJEZnuos1cNcBwLQQd+8SbPwjotOyRnJaa0PcN0IRCxMmQgpJyy78viYjb05aduEPNJl5P6cdj8zVVmfvbKx+19Ve92FnY/Vm2vEgFM4wYSIUIFbP/Zo1cDcCwEW0YzkFq2Dj/ynY+SdoB4JQOIqjHQBC4Sotu9AwZdaS1zNnXv1HADiLdjw+mMJkmS7V6oxsv3iotl90dNAOCKFwgiNMhPyk1RnzpsxaslqTmXcu7VgCITosmwQ7Xyo5rbjCFiEfYMJEyEdanTGL1XOvMVkmtT969Ys3cS6WnNaPaMeCkJphwkToFFg9d5FWZ7yPyTJdTDuWINsk2PgXBTv/Gu1AEFIjTJgInQSr5y7T6oxlkTaiPBV5xNmy8+U7Oxur7bRjQUhNMGEidJy07MILJ55z/YPRliiPJzosDwp2/lXJad1LOxaE1AATJkJeWp0xg9VzTzNZpmtox6Im3jnOqyWntZl2LAjRhAkTRbXkjNyZ6dlFl6RlF96oycz7Hu141MzVVrezs7H6xY7Gqv+42+uxghCKOpgwUVTS6ow/zJ2/7m8AcCHtWI7xX8HG15zoD1gDlw8Ac0If0kltrX3jopvc7fW7aQeCUKhgwkRRRR5RzvzlpqdVUJXnc8HGlwPAesHOf+pPQ63OeB6jM81lDdwVAHBO8EI8NdFh+UdDxYLf04wBoVDBhImiglZnzGf13FVMlulOSiF4CqIDwDbBzr+j5Buzeu4+rc54Mc1FSqLD8pBg59+WnNbPacWAULBhwkQRTasz5rJ6rpTJMhVTCqFNsPFPCnb+gWB3lJZdeOW0y557EgAmBbuvkxEdlpWCnX9Tclq30ooBoWDBhIkiklZnPJ/Vc9cwWSZqjwtFh+XxQx/ds8LdXt8Qyn5ZPXcPa+Cuofm4VnRYlgl2/p+S07qdVgwIKQ0TJoooWp1xFqvnFlN+PPl8Q8WCm2j1fxSr537KGrinACCbVgwdDVWr979389W0+kdISZgwUcSYce2HqzWZeVfS6l90WB5pqFhwF63+T0a+icidv+5hADifVgyCjb9LsHvmcBEKW5gwUVjT6oxZjM70W9bALaYUQrtg4/8RijnKQHlH37cyWSaaNxUPCXZ+qeS0dtKKASFSmDBR2EnOyE1Pzy4qTssuNGky8y6nEYMkbHu3s7F6dfNnz71Co/9ApGUXzk/PLro8Pafo17RicLXVrelsrP6oo7Fqlbu9vo9WHAj5AxMmChveEdJNTJbpWloxeOurvi45rSFdyBMsrJ67jjVwN9Dcl9rRUPXS/vduvpFW/wj5ChMmCgtTL332jfScImqJUrDxi0Wn5R+S09pBK4ZgYvXcZayBuwsAfkgpBEGw8c+Gw6NtFL0wYSLV0uqMsYzOdC/F+cmjifIFyWl10IohlFg9N0+rM95BcZWxW7DxD2PiRGqECROpUs68tW/QfPQq2Pj7BDv/V1r905aWXThn2mXPVdKMQXRYHhfs/J8kp3WEZhwIHYUJE6mGVmdMZPXcU0yWaSGtGESH5cNDH91zg7u9/iCtGNSE1XM3sAbuSQBIoRWD6LAsaahY8Gda/SN0FCZMRF1yRu7MKbOW/I3JMs2jFYN3NLNcclqdtGJQM1bPLWIN3C9onu4i2Pg/C3Z+Ca3+EcKEiaiaeumzK9Nziq4EgEwa/XtXvb4hOa31NPoPN6yeW6DVGW+lOMcpCDZ+mWDnH6PUP4pimDARFayeu581cHcCgIZG/97FPE9KTms7jf7DHavnfpSWXfgPTWbe2ZRCqBds/OvRPM+MQg8TJgoZrc4Yw+q5x2gWRHe11b25+82Lf0mr/0jD6rnfsgZuFc0Y5JsfXFWLQgETJgqq5Izc9OSM3EtYPXe7JjOPyvyXq63uk87G6nc6GqtWu9vrd9OIIdKlZRdemp5ddH16TpEZALJoxOBqq6sQ7PzSzsbqj2n0jyIfJkwUNFMvfXZVek7Rb2n1LzosLwh2/lbJacXSayHkLfb+MgCcRSmEA4KNv0Ww8xso9Y8iFCZMpDhWz93IGrgXaPUvOixvC3b+lkityhMuWD13EWvgnqd4vFi3N3G+Qal/FGEwYSJFqKEqT0dD1ZqWnS//QnJah2jFgL7Nu8Dr9wCQTimEw4KNfw7nOVGgMGGigGh1xjRGZ/o9zUQpOiz/Fuz8Q5LT+hGtGNCpsXpOvqH6JQDkUQrBJdj4RzBxIlKYMBGR5IzcSVNmLbmFyTLdRysG0WH5UHJaHxTs/CZaMSD/eUecNwLAGTT6d7XV7epsrL4NPzfIX5gwkd9YPXeNd25KS6N/0WFZ752jxKo8Ycw7x7kcAAoohXCgvvyK6/HJBPIVJkzkM1bP3coauCcAII5G/6LD8qJg52+TnFYXjf5RcJyu/9NvJxtKaO7l/EKw8b8X7PwHFGNAYQATJhqTVmdMYnSmuyjPUX7QsvPluzsbq+20YkDBx+q5+1gDdzcAJFMKARcHoTFhwkQnxOq5q5Izchd467yGnHeeaY2rvW5dZ2P1FzRiQHSkZRdemZ5dNDs9p+hGAEigEMLhpk+ffaut9q3H3e31UXEOKvINJkz0DayeK2MN3O8AYCqN/kWH5R+CnX9bclqtNPpH6sLqubmsgSsFADON/kWHZZPktP5dsPPv0+gfqQuVuSikPqyeuz13/ro1TJZpAY39cqLD8sLB9//wpyP2R5/pFx1Rd1efbzLH3vvEUw/c94+nNgLAyA5LDS5EAQDJaa0T7PyLALDH+9kMqaTUKWcxWabrtDrjrKTUKZLktGJpxSiGI8wox+q5v7AG7loAmEGjf1dbXaVg51d1NlZX0+hfDWYXzfnRklUvvi7/cxz9ve01NZtWLV+6GBPn17Q6YwKjM91DeT5dHnE+Itj592jFgOjBhBmlvHvhqF14AOCL+vIrbov2Jf0ryitfKTCbrzvZn3sTZ+EOS01PaCNTN1bP3cwauH8AQCKlEDr3bbipsLOxuoZS/4gCTJhR5nT9n66ZbCh5i2IIW+vLr/iz5LRuphgDdcUlZT9bWFr2jq+vf37ZI79etXzZ68GNKvyweu73rIF7FABiafQvOiwbBTt/ueS0SjT6R6GFCTNKeM8t/DUAzKLRv+iwvCXY+WejfUSZbzLPWllR+QgAGPxtu72m5p1Vy5fev8NSsz040YUvVs9dq9UZFzJZpoto9C86LO8Kdn5ptH++Ix0mzAjnXfV6Fa1qKqLD8qR31auFRv9qkW8yf6+4pOzBArN5TqDvtb2mZvGq5Usf2GHBp4HHm3rps9em5xRRO50EyzVGNkyYEcpblacUAM6kFMK+fRtuurOzsXotpf5Vo7ik7P6FpWVKzxfve37Z0vtXLV+Kj2mPo9UZUxmd6Y+UFwf9R3JaH8PFQZEFE2YEScsuvJLVc1doMvOuptG/q61ul7u9fn1HY9XrnY3VtTRiUJPZRXOu/P2Df+UnTdZNCWI3wvPLlj6zcX3lmv31dbjl4Thp2YWF6dlFv07PKZoFAJMohHBQsPFlHY1Vm93t9Uco9I8UhAkzArB67sdp2YWPaTLzzqbRv/cx1ErBzq+h0b/aFJeUXb2wtOzVUK/g3Li+8jf3LPztq6HsM5ywek4edZYAwGQa/YsOy6Pe6YlPaPSPAocJM4x5T3tYCwCZNPoXHZZNgp2/B6vyjPIu6HkaAKjcuMDX21D+sMNS8z9aMajd1EufvSE9p+hFWv17V9beITmtUf8UJtxgwgxDrJ4rZA3c07TOEwSAgX0bbvp5Z2P1fyn1ryr5JnNccUnZhgKz+ce0Yzlqe01N+S3z515BOw41y5m39gHK57niDWeYwYQZRrzFBkoBIIVSCHbBxi8T7HzUL+SRTc3Niyl9eOniArOZ2kX3VJ5fttSzopZ2HGrm/V79hmL95E0tO1++E0/jUT9MmGGA1XNXsgbuKQA4jVIImwQb/7Jg51+h1L/qzC6ac3FxadkD0/KmX0g7Fh9sWjRvLpbZOwVv4vwdAJxOo3/RYXlQsPNLJKe1j0b/6NQwYaqYVmecxeq5PzNZJiqP+rx1M5cLdt7nijTRIEjbRIJue03N+6uWL71hh6Um6orb+4PVc/ewBu5mWlMego1fLDotz0pOK66qVRlMmCrE6rlLWAP3JABMp9G/q61u16GP7rlOclp30OhfrYpLyi5dWFr2brh/bxbNm3sRjjZPLWfe2ueZLFMxrf5xcZD6hPUXP9J4V72uAYAJtGIQbPyfBTu/hFb/apRvMn/fu/rVSDsWpWyvqflg1fKlP9thqcHHf6eQM2/tQ0yW6S5a/YsOS7Vg52+RnNZDtGJAozBhUpZyekHBaefddGd6TtFFADCRQgiOjoaqlzoaq7Z2Nlb/h0L/qlVcUvan2XPmXD0tb7qedizBsq9uT8XG9etfWrV8aRXtWNQuLbvwyvTsop+m5xRdT+MsYUnYZhG//Ohx3O9MDyZMSrQ64wxWz62gVSwaAA4INv5Wwc6/S6l/1ZpdNMewZNWLH9OOI8TaFs2bewU+qvWNdyHealr9iw7Lww0VC+6m1X+0woQZYt75yb/QOjXE1Va3q7Ox+jYsDn1i4bqgRyl4cLXvkjNyJ6RnF91KuWbtg4Kdf0VyWvfRiiGaYMIMEVbPXaXVGRdRHFGKgo3nBTuPe/JOoLikbMHC0rLXASCJdixqsHF95Z/uWfjbx2jHEQ60OqOG0ZnKKCfO5YKd/6fktG6jFUM0wIQZZKyeW8QauGsB4AJKIQwINv7vmChPLN9knlVcUra4wGymdSOjWt5tKPJoE88R84FWZ8xgdKbbWQN3L405TllHQ9Xf9r938700+o4GmDCDRKsznjll1pJyTWZePqUQmr1zlFiV5wTyTebY4pKydwvM5p/SjkXtttfU/PeW+XN/QjuOcMLquVLWwC2l1b/osNzdULHgYVr9RypMmArT6owFrJ5bTvHR627Bxt8u2PmNlPpXvRXllcUFZvPztOMIN88vW7po1fKlz9COI5yweu561sC9RKt/wcYvxqdLysGEqRBWzxVqdUaOVqJ0tdV93tlYfQ9W5Tm5fJP5zNKHH3llWt50KguuIoTFW58WC+/7SKszprB67k4my0TtUal3cdCrktO6l1YMkQATZoC8q17/DADU5sDku8iOxqoH3O31tEJQveKSsvsWlpbhnbZCttfUbFp2V9l1++vrcDO9j7Q64wRGZ6K6qtZ7rXjM3V7fTSuGcIYJk1BaduH5E8+5/iGKj14lwcYvx8ctYysuKfuJN1GeTzuWSLOvbs+uZXfdeStuQfGPVmeMY3Smv1BMnLsFG/8Pwc7j43U/YcL0g3d+spTJMl1NKYRawca/Kdj5v1PqPyzkm8zfLS4pe6DAbJ5PO5Zosb2m5mnvitpW2rGEG1bP3ckauHsAIJVC942CjX9NsPMPUug77GDC9IH31JDrmCzTjZRC2CPY+KcEO/80pf7DRrQXHqBs0Du/iTd0fkrOyJ0+ZdaSO5gs0yJKIbR7R534xGoMmDDHICfK3PnrFtOcnxQdFr6hYkEJrf7DRb7JnF768CNbpuVNP5t2LAj6n1+29LJVy5d+QDuQcJQzb+1fmSzTX2j1LzosSxoqFvyZVv9qhgnzBLynhiwFgB/QikF0WO5tqFjwN1r9h5PikrK7FpaWPUQ7DvQtm6+50PyL/fV1h2kHEm60OqN8HVrKZJlKacVQX37FRZLTivPTx8CEeQytzjiT1XO/oHh3d0Cw8S/jYxHfFJeUzVtYWvYGAGhox4JOquP5ZUvvXLV8Ke57JcTquftZA3cHAGRQ6N4u2PjVgp3nKfStOpgwRxOlmdVz1zBZptsohbDN+6FcRqn/sILl7MIPFnUP3NRLn300Pafoj5S6x8VB0Z4wtTpjvnfV6zW0YuhoqOL3v3czzlH6IN9kjvEmyvtox4LIbK+pefyW+XNpXfTDnlZnPJfVcxyTZbqOUgifCjb+n4Kdf4RS/1RFZcLU6ow/zJ2/7u8UC6LjxLqfiktKL15YeicuIokQzy9beteq5Uuj8qKrBO8c53Imy8TRiiEay+5FVcJMzsidOfOXm56mvOr10YaKBdQ+5OFoRXnliwVm8w2040CK27lo3tzb8TFtYHLmrV3MZJnup9R9bX35FTdJTmtUnGgT8QkzOSMX0rOL7kzLLjRpMvPm0Iiho6HqtY7Gqn91NlaX0+g/HM0umvO92XPm3j17zlxaRSJQiOzc9snWt55ZuWhj1fovaMcSztKyCxecdt5NN2rZ/7uMQveNHQ1VlR2NVS91NlbvotB/SER0wsyZt5Znskx/otV/R0PV4/vfuxnna/yQbzKfu7KicgUAmGnHgkJu86J5c2/aYampox1IONPqjNmsnnuKyTLROrpuR335Fb+XnNatlPoPmohMmKyeK2MN3BJah7iKDsvfBTv/iOS0ijT6D0f5JvOM4pKyBwvM5gW0Y0F0ba+peXPV8qX377DUNNKOJZxpdcZURmf6I62ataLD8oFg5++WnFY7jf6DIaISplZnPI/Vc4/RKogu2PjFotPyrOS0HqHRf7iaXTTnyiWrXlxNOw6kLt4ye1G1qCQYtDrj6YzOdDOtxLlvw02FnY3VEXHsYMQkzLTswp9Pu+y5ahp9exPlQ5LT2k+j/3CVbzKPL334kTen5U3/Ge1YkGp9+vyypfevWr60inYg4U6rMyYwOtM9NBKnYOMvFez8v0Pdr9IiImF6a75uCnG3w4KNv12w8ytC3G9EKC4pK1tYWobbCpCvthkmTaBWqjKSJGfkslNmLXmZyTL9JJT9ig7LpoaKBReHsk+lhX3CzJm39i9MlumvoexT/oc/9NE9xe72ejy93E/5JvOslRWV7wBACu1YUNjpfX7Z0p+vWr401DfHEUmrM6azem4dk2UKZRL7tL78ih9ITutQCPtUTFgnzJx5az8I5T+26LA8INj5VyWndV+o+owUWM4OKQXL7ClLqzNOZnSmhaF8VBuuhd3DNmHmzFv7YagW94gOyxLvqtfuUPQXSfJNZvAmSlobq1GE2l5T8/Kq5Ut/u8NSM0w7lkig1RkTGZ3p7lAlznBMmmGXMJMzcmdOvfTZ1ZrMvGCeezjU0VBV3tFYtcbdXv++u72+I4h9RaSpuXkZc375q9uu/d0iOVHG0o4HRa6N6ytXb1xf+ezGqvVYOlEByRm5muSM3EJWz5VpMvP+L5h9hVt5vbBKmKFY3CM6LGsbKhZcGcw+Il1xSdm9C0vLovpUAxR622tqNi27q+zW/fV1tbRjiRTyNZfVc79msky/DVYf4bQYiMrGfhJanfHc3PnrbMF6f9Fh2XDw/T/89oj90eXB6iPSFZeU/XhlReXrBWYzrZMUUBSbfMYZZy248bc/A4B9Oyw19bTjiQT9ouNg+57V60WnpSqRmdKRlDpF8QMrklKnnDUCI3skp1X1JfXCZoSZf/thKwCcr/T7ig7L64KdvwWr8pDLN5nPXllR+QzN018QOs62RfPm3rbDUhO0m+xopNUZY1g99yiTZfqDwm/dsOPJybkKv6fiwiJhnq7/052TDSUPK/meosOySrDzN0lO64iS7xttVpRXvl1gNmOBdKRK22tq3l21fGnhDksNfs8VljNv7SolH9WKDkt1Q8WCIqXeLxjCImHm3364BwDGKfFeosOyyVvf8GMl3i9aYTk7FE6219Q84N2KQjuUiJKWXXjRtMue+1Cp9xNs/MWCnVftPlvVz2HmzFv7XFLqFEUexXY0VC3dW33dr/pFh0OJ94tG+Saz9t4nnnr417fd/ijtWBDy1eQzzrio8Jpf/Ea+DOyw1PyPdjyRwt1ef0B0Wt5KZKack5Q65axA34/JMl0vOi2r+kWHKqfIVD3CZPXcj1kD9x8l3kt0WK5tqFjwlhLvFa2KS8pKFpaWLaMdB0KB2Fe3Z+MvfnjBJbTjiDQ589Y+zWSZblHgrSw7npysyuP9VD3CzJ2/bgMAZAb6PvXlV1x0xP4olcLskSDfZJ71r22f7iwwmwtpx4JQoNInTJi2sLTsPgCw4xFiymnfs/pdANgkjxIDfKsp8mVbclpVd6C4akeYM679cLUmMy+g/ZCutrpd+9+7+Sp3ez3uy/LT1Nw8mD1n7v2z58y5clre9GAWiUCImn11e3ZtXL9+zcb1la/sr687QDueSKBQcZnWfRtumtXZWK2qa7cqE6YSBQrCaTOs2hSXlF6xsPTOtbTjQCiUttfULL9l/txS2nFEikDLl6rxGq7KR7Lfvd6+GgB0pO3V+IMOB/kmM3vvE089VnjNLxTdwoNQOJh8xhmmhaVliwGgZ4elxkI7nnDXvmf1K1qd8SLSxUDedp9ITmuD8tGRUV2NT3l0CQD6AN6iT7Dz9ygYUlQoLin7y8qKysMFZnMx7VgQomlhadmytzZvXZ1vUuW6k7Ai2HkOAIgPrdDqjKoa8atuhHnmJY+/HMjyZMHG/6x9z+qwqoBPU3FJ2eyVFZWvFZjNv6EdC0JqkT5hwtnebSjtOyw1n9OOJ1z1iw5hBEaSSB/NyrlAdFqeV8s2E1XNYWp1xrTc+euITwbBR7G+yzeZp6+sqHwOAC6kHQtCKte4aN7cYjx/k0xyRi7M/OUm4kpLosPyREPFAqVL8RFR1SNZRmf6fSDtBTuPe6t8sKK88o2VFZW7MVki5JPslRWVm1aUV36QbzIn0w4m3Ljb6z3HeJG2Z7ICywtKUlXCZA3ctaRtXW11r0lO65CyEUWWfJN51lubt35RYDYT/5wRilYFZvPFKysqXSvKKx/KN5kTaccTTrxnXhKP0Fk9eW5QkmoSpnexD3G1esHOVykbUeTIN5nHrSivXCbfJeOeSoQCU2A237WyorJpdtGcy2jHEk4EG/84aVutzrhQ2WjIqGYOc+qlzz6enlNEOvQ+uPOlgrMGJEHhqMLb7KI5P589Z+5V8i8AwEdJCCls4/rKNZ5fVevX0I4lHMy49sM1msy8BSRtd75UoB2QhB7lo/KdahJm/u2HiSeFBRt/nWDnX1M2ovCVbzLPKi4pW1xgNhNvGkYI+WXP88uWLlq1fKlqT9pQA63OeEHu/HVbSNru23DTVZ2N1VRvTFTxSJbVc7MDaY/JclS+yQwryiufWVlRuQmTJUIhNX1hadmHK8or3883mfEg9ZOQnNatAOAmaZuckUs9X1EPwIv4AyY6LK8qG0p4ml00Z/7KisqRArP5ZtqxIBStCszm2SsrKresKK98nnYsaiXYeKJKYpqMvHnKR+MfVSRMrc5IfCKJ5LQqdnhpuJJHlUtWvbiOdhwIoVEFZnOxral1pLik7Ke0Y1Eb0Wl5iaRdckZuqvLR+EcVCZPJMt1O2law8y8rG034KC4p+7P8pcRRJULqtLC07L0V5ZVLcBvK1ySn9UuSdprMPOqrklWRMANAXKMwnBWXlP3I1tS6ZWFp2d9ox4IQGluB2Xz3yorKpuKSsjtox6IiNtoBkKBeSzYtu/DC9JyiG0jaig4L375n9QfKR6VO+SZz7r1PPPVU4TW/WAYAZ9COByHks+QCs/myfJP5IuHQoQPCoUMHaQdEmY6wvuxeyWmlVtuX+ggzOSP3dNK2ktPar2w06rWivPK1lRWVdQVm8zW0Y0EIkSkwmy/yltn7MN9knkQ7HlpEp+UtknZanTFb+Wh8Rz1hajLy5pO2dbXXrVI2GnWZmpuXWFxS9uv1n/7vywKz+Ve040EIKcObOI+8tXnru7OL5hBfA8OV5LTWk7Rjskx/Vj4a31FPmMkZuaQVaOo7G6udCoejGivKK+95e0tN38LSslcnTdZNoR0PQkh50/KmX7Zk1Yvr3tq89X/5JjP1KbJQEh2WFwiaxWt1RmpVy6gnTE1m3uUk7QQb/6by0dCXbzLPsjW1dhSYzX+nHQtCKDSm5U0/d2VF5WBxSdki2rGEiuS0HiJpx+hMdyofjW+oJkytzpgTQPOIOplETpQryis/XFlRuQkA0mjHgxAKvYWlZStsTa1CcUnZj2nHEgJf0A7AX1QTJqMzER/ZIjotTysbDT0ryiufxnJ2CCGv0xeWlv3HuzBoFu1ggkWw80TFVlgDR23Ol/ojWUIdktPaQTuIQOWbzKa3Nm/9X4HZfAvtWBBC6nJ0RW1xSdn9tGMJoq0Ebc4NQhw+oZowWQNHtJFXsPFPKB9NaHlHlTXT8qZT+8dHCKnfwtKyxbam1pHZRXOMtGNRmmDj3ydpx+rJckegaI8wMyj3H3LFJWWzveXscFSJEPLZklUvWlaUVz5FOw6FuQjbpSsch0+oJUxWz51P2lZ0WsJuhWxxSdnFtqbWjxaWlhHdUSGEUIHZfKutqXWguKTsHtqxKEF0WpaStGMNHJXRNs0RJnEVf8lpbVA2lODJN5m/s6K88o2FpWUfAMAPaceDEAp78QtLy/5ua2rdXFxS9iPawQRCclrl/yEpYkDlFBhqG2Vz5697geSRrKutbmPrzldUfwbm1Ny8mb+54w933b2cf2vyGWecQzsehFDEObPAbP7N7DlzfpKeOYHpaG39srOtTaIdFIHMcKkrS3OE+R2SRp2N1RuVD0U5+SZz8oryykfe3lKz69rfLfoT7XgQQpFtWt5008LSssff3lJzeHbRnCtpx0Pgf4TtiHJIIKgkTFbPLSBtq+b9l8UlZb9fWVHZVGA2l9GOBSEUfZasenH1ivLKx/NN5vG0Y/GVYOf/RdKONXAhvzmgNcI8m7Sh5LSq7gxMbzm7NvkuDwConwqOEIpeBWazfOPeWVxSdhftWIKMOI+QojPCNHCkjyrfVTiUgOSbzBOPKWcXdVtkEELqtbC07CFbU2tvOFQLcrXVEY0ytTpjSM8FpjXCJBqFCTbernwoZIpLSm9YWVHZjOXsEEIqpjnm/E3VJk53e30TSTtGZ7pB+WhOLuQJk9VzF5C2FZ2W15SNxn/5JvP5K8or/72w9M4XaceCEEK+OObg6gen5ubF0I7neB2NVUSLOVkDd6Hy0ZwcjRHmbNKGktO6T9lQ/FNcUnb/yopKa4HZ/BOacSCEEIkCs/neJate2JlvMufRjkUhxPmERMgTplZn1BA2rVM4FJ8Vl5T9yNbUOrKwtGwxrRgQQkgJ0/Kmn72yonLPivLKN2jHcpS7vZ54u2AAOcVv8aHq6Cgmi+zwT8HGv6V8NCc3NTdv0uw5c3+3sLTsKgCYGcq+UfT5rG4Yel0jsGvvyLf+TJMMMGNqLJw3PQbiYlX3NA2FqQKz+VpbU+u1G9dXLtu4vnL1xqr122jF4m6vbweAfXI+97ctozOVSU7rA8GJ7JtC+u1j9dxNrIF7lqStYOMLBTv/jvJRfduK8sqXC8zm34SiLxTd6g8Ow+vVg9Di42F1eWfFwA1z42E8g4kTKW77onlzb9thqfmYRuesnrufNXAkT/GEHU9OnhyEkL4l1I9kWdKGoUiW+SazZkV55QeYLFEoPPraADz2mu/JUlZ3YATuemIAPt09FMzQUHQqWFlRaV1RXvluvslM445smLAdcV7xV0gTplZnPI+knautzqZ8NF/LN5kTV5RXPrSyorK3wGy+OJh9ISSPKu94uB8aDn778auvnls35Em4CCmtwGy+bGVF5XCot6GITstDpG1Jc4u/QpowmSzT5STt3O31XyofzajikrLbveXsIr0qBlIBOVnKo8qBwcDfS064mDRRsHi3obySbzKfFYr+JKeV+FvB6ExzlY3mxEKWMFk9F8gG/zYFQ/GQ755WlFd+uLC07B8AkKb0+yN0PDlZPv66ApnyGHLSfAyTJgqSArP5upUVlfuLS8ruD0V/osNCVM1NqzOG5BFyKEeYxMP7jsaqD5QKIt9kzjhazg6r9KBQGR4BeHbNIIyQP4U9qfqDI2DbiXOaKHgWlpYttjW1Bv0xreS0ElVzY7JMIXlCGLKEqdUZmQCaH1IihuKS0l+urKhsw0SJQm31vweh1x2893+1ChMmCrqYY8rsFQSjA9FpIdpFAQBJAeYYn4QsYTJZJo60bWdjdUDLnPNNZv2K8soNC0vvfD2Q90GIREf3CHy0jXQBoG+GhwG21wa3D4Tg6zJ721aUV/JTc/OSlXxvyWk9QtqW0ZmCfv5wSBJmckZuIEdeEVf4mV00Z9aS519YvbKi0lZgNl8aQAwIEXtlvbLzlifzgQ1HmSh0CszmPz3xz9X1xSVld0/NVa7SnqutjmgLYXJGbtDPAA1JwkzPLvojaVuSCj/FJWUX2ZpaNy1Z9eKm2XPmhuMJ5ChCjIyM7p0MhX3O0PSD0FGTJuumLCwtW/L2lpqRFeWVi/NN5oDfs7Ox+t8k7dJzyPOMr0KSMLU6YyDPu/3Y1g1gWnTHfT+89ffvB7LICCGl7Nob2sekn+zCx7KIjqwfGErynnzh1UDfR3RaniZtG2CuOaWQJEwmy1RE2tbfH15tb1/MfQea49a0dIXmORhCY+jrD21/TW04ykSht6alC+5oFFKs3a6EQN9LclqJ7/oYnakw0P7HEvSEqdUZA+njoOS0Ek3MrG3pjr+69hBs6uwRA+gfoYA0t+OID0WuQ30DIF9n17Z0K/q+osNCtEBTqzPGKRrIcYKeMBmd6W7StoKNfynQ/lcebmceONA8uKsniGv6EToJoZV2BAgFR2Vr92DJXuJFrWOSnNZGknZMFnm+8UXQj/fS6ox+H9eitNrevvgHD7bAJekproVsRsjOTkNoKMQLVwdxIgIF2WeSu2dNSxc0uvpTgthNA2G7oOa04I8ws0w3krYVnZZnlIzl/Y4ezQMHmgFHmwgh5J/63r4h+fr50JctKUFOliDY+TeD+f6kQn28lz96JKe1Sek3re3tA3m0+WZTpzQ4MiIp/f4IIRRhhte0dA3fe6A5Tr5+hhC1A61PJqgJk9VzvydtK9j4ZcpG802VbaL2l7sd2scdrb2fiC58kIUQQsfY09vnfknocF1deyh2bUt3yAdXgo2vJmkXSN45lWDPYQZyCkhIlktYu13jrN0umDkuaXjBxNSYs1OS8Sh7pJiYEH+aYtX8zAiFjTUtXbC2pVvRsncEPiJsF7TTp4I7wjRw5BV+7Dzx5lUStb19sQ8ebIl54EBzKLtFES41qDM934YJEwXiix53XzC2iZAQ7PwmknasgQtaTdmgfb2SM3LjACDotf2UVtvbB9xeobsWFwYhBbAT8YEFUr/9rv7++w809/31YEsS7ViOJTosrxA0S9XqjAEXUDiRYCbMy0nbig5LwOWVAuHoG0x94GALPHigGWp7QjrJjSLMuBA/4Z9+FiZo5LuD7n738kOtfXftb0rc09unqmQJo/sx95O0Y3TBOR8zmHOYxMlYclr3KhsKmV29fbDrYDNcMSG176rTxqvuw4TQ8bLPwGeyyDcqmac8lT2E7YLyRQjatys9u+j/SNuKTssKZaMJzLrW7qQb9zhd77WLvbRjQeEl50wc8SF1OdQ3AHfuOyKqYZ7yVAQ7/0+SdqyBm6N8NMEdYU4lbSg5raorKNYzPKx56UgnWLtd7qsmpiafnaL2GzOkBqkpoUuYCUGv24XC3bqW7pHVLV3yh5KhHUuQ5QfjTYM3wswp+ilh080Kh6KoPb19yQ8ebPE8zkDIF7rTQpM0Z07D0Sw6sV09bijde0T0JsuwIjosj5K00+qMk5SOJZgTHqkkjQQbX658KMpb29IN3F7Bkzjdw8P4qBadVNFFQT1A4SuJCWF3LURBNDICg2tbujzXKfkm/8u+gbAcVUpO639J2jE60++UjiUoCTMtu5D4/MuOxqq1ykYTPI6+QU/ifNzRBh919rhox4PU6dyc0CzEmZqFCRON+kxyux5ztMKalm7PdSqcdTRW/ZukXVp2oeLzmEGZ9dBk5BE/P3a31zuVjSb4PpXc4z6V3LDycPvwVRPHw/yJqbhUEX0lJma0oMBwkI/GnJSBCTPa7ZTcfU8624a7hoYj5lQmd3v9CAB8CQBn+NNOk0meh04mKBd21sBdRNJOdFgCPv+SphGA2H+2dMV6z98M79s6pKjzzw3+PdSMaXifFs3WtHTB375sSYqkZHmUYONfJGnH6sly0ckE6xtGFKTktB5UPpTQ856/Gf9mU2cn7ViQOqSnBn/0F+q6tUgdPpNcPX/e3ySFwzaRAHxB2G6WkkEonjBZPfebAJrXKhgKdZVtYtqtDYdFPH8TBdtp6bQjQKFW39s3dO/+pt6HvmxNaXT1a2nHE0yCnV9H0o41cNcrGUcw5jDPIm0o2Pk1yoZCX+vAEPPgwRaYOS4J7jlzYk9CTEyIy3EjNYgL8kLZzHQcXkaR4Ye+bBn5THLLn6pxtINROeJ8dCKKjzC1OuMMknaiw0J09lm4qO3tg1/tdqS83dyFW1Ci0A9mBnd+cVoWzl9GgzUtXXB17aFYb7KMKq62uvUk7Uhz0oko/i1jskxXk7STnFbVna4dDBWt3eN+vdsxsL61u592LCh0JuAIEAVgBGD4rweb3RE+Tzkmd3s90UkYjM50lVIxKJowWT13fgDNWxQMRdX6R0YS3mjuSnzgQLOnriNCCJ3M2pYuuKb2UOwXPX3RXo+TdOGPYpQeYZKWwwPBzquq4Hoo1Pb2QcneI7CmpWv4UN/ACO14UHBNyqQdAQoX8o30mpYuWFjndK+J4lHlsToaqz4maccauDuVikHZEaaB+zFJO9FhWaVkHOFmbUt3bMneIzEPHmiG9oEhkXY8KDj+7+zgTTvlTMFHvpFgaGTE9XZzV698I722pRu6h4ajfVT5lc7G6v8QNtWwerLcdDylR5hmkkaS0+pQOI6wtKu3DxY1HGaeF9rxlhL5JW8qLvoJd/9q7Rav3e3QVLR248pX5ZmUeBPFvmVanXF8AM3/p1QckeD9jp7Uq2sPwc4eN9anRSgK3L3vyOBbzV1hWRw9lEQH2VnJWp0xTYn+FUuYjM70B9K2gp3/l1JxRJK/HWzR3H+g2X3IPYArgxCKQN5tIrDPPYCnmfpAclr3kbRjssjz07GUHGGeQ9iUaKlwtNjT25d8z/4meLdNxNFmmDuTxXlGNMre3SuW7D0iRvM2ERKi0/IUadsActRXFLurYbJMV5C0c7XVvadUDJGqf2Qk4ZWmzoRPRBcsmJgKZ6fgOoBwNBOLo0e93T19nlHlrt4+fPxKQHJaiQdYjM40X3JadwbSvyIJU6szErd1t9c3KRFDNKjt7YOjZfZKp0wQx8XF4pcujASrPN6Zk3HkqnYjAAN/O9gc/0VPH/5jBW4NAFzpb6NA8tRRitzyMjpTKWnbjsaq95WIIZrIifOGOifzRlNnF+1YEH25Z+I1WM3+0y65rqk9lIDJUhmCjd9F0o7JMpUF2rciI8y07MJA9rjgRZ/Q+jZxfFWbOGxMHQe/mjQ+NjMB1w2oXUYqgNKbhhIT8DqsRtau3sEN7eJQnas/4s6npMnVXvcRYdNxyRm5ce72+iHSvhUZYWoy84gTZgCbUZH30GpLd2/sLQ0CfNAhSbTjQWM7Nw/nMSPdrh63Z+Xr4862+DpXfxLteCJNZ2P1JtK26dlF9wTSd8DfXq3OODWA5h8E2j/62rNCh3bxgeaBXT3uQdqxoBNL0eBoMFLJifKBA82edQYouESH5UmSdlqdMTuQfgNOmIzOdB1pW8HGbw60f/RNu3v7Eh482BIvf3EP9w300I4HBR+mYLr6hoel15o6JTlR1vbiLrlQkJzWNpJ2TBZ5voIgHSDtD6ybGiTyF/ePe4+kLJiYCldODKQIE1K7tFTaEUSv8pbu4X+2dGlpxxGF7DQ6DXiEyRq4W0nbCnb+0UD7R2Nb29LtmU/5THLh/GaEyhiPY8xQGwEYLtt7RE6WOClNgWDnN5C2ZfXcLaRtA/rH1uqMDABMDOQ9UGg89GWr9t79TT0H3f34zCjCaHFeNJSG17R0DV9Teyj2YN8AJkuKRIflLZJ2Wp1xGmmfAf2DMzrTbaRtRYfln4H0jfxX7+pPuXtfU3xlazfWpo0gSYm0I4gOW7p6pNsbDveubenGRKkCktNaR9KOyTLdTtpnoHOYxF9VyWndHWDfiMAQQNybzV1xn0nu4QUTU2POTknG4UmYGx6mHUFkq+1xw5qWbqjt7cO5SnUhKsQeSN4K6E6JNXDFpG07GqseCaRvFJja3r7YBw+2xHB7BXi/Q3L1Dg1jcfcQGBlR/j17XEF4UwSWrt5++fvxAK5+VSXBzr9G2jYtu/BHJO2IE6Z3P0sWYfMhd3u9m7RvpBxH3yA8L3Robqhzata2YNGlYKvbr/xwsLUTE6aS9rv7++7ad2TwCWdbovz9QKpGVCYPADJJGhEnTEZn+iVpW9FhWULaFgXPmpZuuKb2EBzqwynOYNnrUD65tXQo/pZR6+3mLtdd+5qS9uP5lGFBsPFrSNqlZxddRNKOyuS15LS20ugXnZp8OS/ZewQ2tIn4BEBhHd04ElSrXT3ukatrD0FFazfWfQ0v/yZsR7S7gzhhsgbuDtK2gp3/B2lbFBovN3Um33+g2fVFjxsTp0JqPgvO6pytO4hrSUe9Y8rZ4eK3MCTY+Y9J2qXnFF1G0i6Qxw4ZAbRFYWBPb5/mr97zN687Pa1vanIiFpIm1No5Au9uDk5i65IA6g8OQ+6ZuNvBV92DQ+Lqlm74b4eEZ8qGvyYAmORnG6IVz0TfsLTswhySdjA6f/kmaVtER21vH9y1rylpDS4KIvZq1SAE84FsdZCScST6uLsXFtYfZjBZRgbRYXmGpB2r5873tw3pLel5hO1AclrrSdsiuo6W2bN39yp8omNke/S1AWg4GNz5S/n938GkOaaRkZH+Bw80w2MOorrdSKUCyCk/9bcBUcJMzy4yk7Tz2htAW6QCvKMt9ZEvW3Dfpg+qPxoKerL8qq/Ncl9YxeBENrSJ4jW7HYm7cD9lxBHsPNFTS9bAXetvG9IR5mTCdoOCnX+dsC1SkR2SW3NN7SF4wtE2cqhvAIc2J9AljsA7W0L7o3n0tUGw7cR/DtmhvgF49nB73/V7HP0vN3Xi49fItp+gTa6/DchGmDlFF5O0Ex2Wv5O0Q+okj5ss3b0xJXuPxD1woHkQz9/8pk/30BntffhJdI8y+4aHpQcONHu2R33Q2ZPkGh7BarsRTrDxr5C0Y/Xcjf683u9VslqdMQEAJvjbDkafNeNGtAhV29sX/8e9R+IvGD+u56qJ40cmJcZHfd1NidJD64OHo/drtqWrx/2Usz3qP3tRiPRmfYo/L/Z7hBnQCSVOy3rStig8bO3qTbmjUdDiiloUSvW9fUN/P9gy/JSzPZl2LCj0RKflKZJ2Wp3xHH9eT7IPk/h8d8lp/ZS0LQova1u64aB7oK9kygTcu4mCSr45W9vSHUc7DkSP5LS6AeCwv+trmCzTFf683u8RJmvgiCokiA6yOwAUvj4RXUlX1x6CaD1/090XvY9GQ2FXj3tQ/nzJN2cICTb+OZJ2rN73nEYywjQQtMH6sVHszeauBLvokq49bbz27JTIfWImJ8gdu4eh3Xv9prXoR+ZsGgbdpMis/OM9n3KotrcPC6QjJegBYIMvL/TrA6fVGf0tP3SsTwJoi8Jco6tf+6C3zN4vThs/lDsuKeweoR08PAw7G78eNR46Mgyf16tzFPm3578+liohHuD702NhYsZoudS4WADzebGQqg2v8qkt/YPSP1u6YrZ09abIfw3a8SB1EZ2WF1jgFvvbTqsznu7ra/1KmIzO9Dt/gzlKsPPvkrZFkaO2tw/uPdAct2Bi6vCVE8cDrRNzxvJ5/TB8eWQ0ETqaRuB/deG9TWNgEMD+xTf/Dus3je7V1CQBGM6JhZRxo8kz78wYyFFhTdpdPW548GALrn5FJyU5rQ4A6AcAv7YRMVmevLbIl9f6lTDTsgsv8ef1x/iCsB2KUGtbumP/0y65fpqhjTOmjgNdUkLI9sqJPSNQ762+s88xDJ3i6O/v3j8Mrig7m8XVB7Bp29fJ9B3v/07KjAHdaaNJNOeMGGBSYjwj1XNyYyFU49LhkZF+a7drxNrd65kPD1G3KIx1NFQ9lp5TdKe/7eTc1tlY/f6pXudXwtRk5l3gbyAw+pdYR9IORbbuoWHNmpZusHW7+udPTAU5cQbDyAhA7d5hcPePnuohtI6ErFxduGpqG/H8ku3YPfp78XEA5+bGgnYceE5GSdEATJ8anNHoNtE1aOnqHarp7sXzKZHP3O31RIWCNRl55k5QMGFqdcbvkQQia9n5MiZMdFJf9g0kPu5og/fGSa4rJ6bGfDclOeCVQZ/VDXsep+7aOwwHnJgclTA4BJ5FTbLN278elebPiAV2Ygx8JysGZkwLLIHu6nF7Vr16F/Tgoh7kF9FpeZwFbqm/7bQ6o08Hivj8gWR0psv9DeIoyWndSdoWRY+j52/OGJfU95vT08Df8zctnw3BezVD0NIRvBjRt3mS6O6v/1tOnnIS/dEPYmGcxrcHuN2DQ+JjjjamFoujowBITivRFjYmy7f85nPCZA3cXJJAAMBB2A5Fqd29fUl37WuCHzAad8mUCWOONt/ZPARfNA7DgSguB6c2QssIvNMy5Pm3yRwPcP734uDnF8ZBzEly54edPa5nDrdjcXRElVZnjDlV+VZ/Hnl8nyQIwcavImmH0CeiK/nq2kOwYGIqeFfUwpferRzba4fhSCsmSbVr6xq9qZF/jdcCXJAfB2dNjoHvZsfKN0awprkLdvX24Twloo7Rme6SnNaHxnqNTwlTqzPqAojDGkBbhDxzWoc/j3e17knQtOLj1rDVJcFXh1zHxwGIuT0wMGEYYCLtyFAkER2W55gs003+ttPqjFNP9RqfEiajMxX72/lRgp3/D2lbFN3iWxIgoTURNLu1sAcARyERZHAIPP+u8j/qwMR+6M9yQ99UPJMcBU5yWg8zWSa/2zFZpoUAMGaiDfYqNJzBR/6RL6T1KZ6LKYoOCS2Jnl8pn6ZCn5w4p/XC4ISoLD+MlLE9WG/s0xpw1sARjTBFh+VhknYo+iQ0JQKzOR0yKidhsoxiSY5kSN2cAen/Og00u1NGTylHyA+Cna8mbcvqx851p0yYadmFuQCQRdK55LRKJO1QdEgQEiHlk1RI2zABmJp0z+NXhGQxwzGeG6eMikmQujHD8zmJcauvZB9Sp46GqhdJ2qVlF/5orD8/5SNZTUbeL0g6htFMv5y0LYpQwwCaWq3nsStCvojvSvD8SjqkgSFmEHq+J8Lgaf20w0Iq5m6v/5KknSbTk++uPdmfn/KWTaszppF0DAAHCduhCBTfnAjM1jTI+NckTJaIWJwYD6lb079+ZBvedfFRkIhOyxukbcfKeadMmEyW6TaSTjsaquwk7VBkSTyY7JmblC9yCc1YPxsp46tHtvINWG0KxHVhFT30NclpbSRty+hMt57sz8b8lGl1xjOwniMiEdMf41n1mOiM3AOjkTpo9mg9v/rOdIE7pweGUodoh4TUoQEAcgjanTTnjZkMGZ3pBoLOPFztdZWkbU+E1XMLAOBs1sCdDwCXeGPfIzosayWndbCjsWq5u72+R8k+kf9i3LGQsj0VEptwNIlCK+mgxvOrd6YE7ul4KYh2go1/gzX4f6A0a+CuFez8Ayf6s6CNHt3t9aIS78PquZtYA/eMfC0+wR9PZ7JMf2GyTPJfcrHosLzr0kk4pKFEW5OGiRJRN65W6/mFiVNdWD0nD3TMrIH7LgD8HEaLkQjeQc/ngl3xMqqkVeZyT/YHYx4lkH/7YQEATifpcceTkwM6Z5bVc9ewBu4lAPA7AQ5M6AfXDAkGJ+Lm52CTR5TJjeNwIQ9SLfla4JqBiTNE3j5w8fe/2lmh1RnjJp5z/fL0nKI/+NJYdFjKJaf1ecHOv6dEMPm3k53KINj43wl2/tnjf/9UI0yiZBmonHlrVzJZpt+Rtk9oTYSELRn4RQmmEQDNHqzIg9RP/owmNY4Dd04vjjhDiNVz97IG7l75kuxrGybLNF/+pdUZ/y3Y+d9KTqszwDA6AYBkp8cJc1/cyV6dll348/ScopPuRxlLR0PVC52N1ev9bZeckTs9Z97aD1JO//7PSfo9nidxNiXCYMYAjCRhyRAlxPbEQdIBDaTsSIXEw/j0G4WHmOEYT/m9xIMaiBmIgcHMgVM8X0OEvtDs1s7Mnb9uBZNlunqsHDOWpNQp2ZkzrpZHqlrJaf2INJjkjNwUTWbeLH/bxWsyU1p3vvL88b9/0m0lE8+5/qckAcLo/OUhknZTZi1ZqcnMO4e03xOJb0+E8e9PgEQHzq0FSrM7BdL+PQHGfcFAnISLp1H4ieuNg3FHt6PsxmkEJck308zm9GtYA/cgAJytwFuyrIFbnDNvrd+Dr6Nadr78Ekk7TWbeD5Izcr91RutJEyaTdfK9KKciOi2v+duG1XN/YbJMF5H2eSpaexp+QQjFtyTA+P9k4uNXFFHkzzOzOd3z+UaBkUftWvv4oJS3ZLJMRVqd0e9RIozux9xP2m9yRu5Pjv+9sQoXkBZuHJac1n3+NNDqjMAauL8S9ucz+QuCXw7fxYpxo0UHtmTgiBJFJPkCL3++5c95TB/WqiUhX1PTq06D+I7gXVtz56/bFEDzPYTtvvWBOOEnhNVzvyLsgOiEEkZnup+0P3/JXw5MmqeW3DAO0v47AQuio6ggf87T35kImp34FMUfcd1xnmtqKKRlF15J0k6w8W+TtEvPLrrw+N87YcLU6ozZJB3A6BDY76rIrMGzPydkMGmOjdmSDuN2fuvxPUIRT9OQ4pl+iOvEJyq+0NpIS437Lz27aDZhU9L9hd9aKXvChMlkmW4h7ED2b4I2FwTQH5HULekQ145J81jxLYmei0VCC44qUfSKk+Jh/AeZkHAEvwdjYTane4rhh0p6ThHRPKbotDxF0i45I5c9/vdO9tB+IkkHMHqk18d+BkXaVYBigPl4PMAgri2XjfucGb2JwLlKhDwYS/poUsDC7t/C1KTRmK6ZTtJIclq7AaDN33aazLxvDeS+lTDTsguJgoLR+cvn/G2TnJH7XdL+AhXrjgPGErpHCmrkmbCvPM1TrQch9E1yUhi/MdNz6g4aNW6nFhIolcDU6oxEIxzBxj9J0o7Vc9+YxzzRCJN4H6TktB4maEalmtBRni/EfzOj7i4yvjUBmC1pnvncmCEcZSM0Fu328Z7rROKX0Z04x+1gILmB3vY8RmeaQ9jU7xGm14+O/Y9vJcz07KL/I3xjEJ2WfxA0O0Dan1LixHjPXWS0LATybBXZnAEJLVjMASFfydcJ7bbxkPbuhKi5VhxLvm4kH6D+JGoySSPBzhPNY7IGbu6x/32iEeZUkjeG0RFmh79tOhuriQ/6VFo0rJ5N/TADt4ogFIBY9+hWioTD0fM9ojRneSKfBtD2C4I23z/2P749wiRciRTAUSqqEqo9RaEm3wh4qpoEcXMxQtGE+Tgdkuuoj7iCTmtJozZneTx/F5V+o62NX0vSjtVzvzn6/080wjyNMBiS7SRHbQ2greK0NZG1ECjhcNLoHbE67hARihjjdjHAbE3znN4TieSb7MQj6kiWCnATtjvr6P/5RsLU6owzSCMRnZZ3SNsKNv590rbBkNiUBCnbUmmHoYhxn2uB+TiybgAQUpOE5iRI2xB585pyslTZTTZpiTsP0v2Yx+bFbyRMRme6ijQYyWndRtpWdFqeIG0bLElfakCzK3zLZMW4Y2H8exMguRELziMUbEfnNZP2R8YqWjn5qyxZQkdDFfHjWBjNUUSHoXqPKfP4RsJkDRxp6aEWwnYektPaKTosywN5j2DQ1KVAcn34zVF49la+O9FzlBEKrmHNkOeg8t4ZEnQUNXv+v5rI8fRP6qMdRtRI+XS8Z2QWzuJbE1S5lqOjsepdBd6mMpDG37iisgbuRZI3EWz8skAO+ZT1i4ccmTOuJj5SLFgSmpM81YAGJ/ldIpcKzRda0H46nnYYEUlOPP1nuGFwYj/0/F8X9J4reU7xH5w44Pklf5sSjiRBQrt67szFH3Z4YnbN6Pnq13DSMAylD3j+HjEDMRDbhzdWSpJvVBMOJ40eXJ88TDscv3j2Z29OhxgVnq4t2PlfD7rahgJ8mzzCYyRFyWm1frVbPy270EAagau9rpq07VGS07p734ab5k677LmA7gCCQdOQ4tnc33ueSDuUk4rtjfUUQsZVsIEZiR+GgUn9MDCxH0YSRy92AxN8v/DFt6nr5x/XGQ9DaYPf+L2+aa6v/r+cQMH7CD+hdTT2uI4Ez57DCFrsEXLxXQmeerTyCP/oz1jtkneneM4MVmWytPF/dLfXB/yopKOxagVr4Bb72y4tu/DHgp1/9KuEqcnIu5Q0iM7G6u2kbY97n/WCjb+YNXAfKvF+SkreNw4ShSTovqADhplAb3KUFdcVD9qPx0NcT3RVK1JC/2Q3DI0fhIHMARg8LfCnCGq7YUloSfxWwjwR+YagP8t7Pcr65nUp6UAyxLriIMGZDPHd+Bnzh2a3FoYTRqAvu5d2KGNS4QKfr4gOy78EO/+4Eu/lbq8nmj7UZI7mx68+/Vqd8QzCGLYQtjshwc5v0uqMdzNZpoeUfF8lyBeNlE9Tofdc0aeLUCh49lduTYeYEfXdFarRSNwIuHN7gnYRU9u/Q4wChwv0nTW6Gl8eKcUMxIzWHR6KAU09LijzRcrnDMT2xYDrbHWONFWeLDc1VCyYp/B7rmSyTIv8bSfnyK8mL8768eNEj0IFG/9SoPOXx2vfs3qrVmc8PSl1CnGZvmCJ643zPG4ZyOyHkSS6m6/kZOmpBavCRyhq03eWC/rZPpAu6PTMNw5lkB6RNzZ5RKEmgxP7R+dXlRIHo3O2p/WDW77hiBuB4eRhHHmeQkJbIsS3JkL/maRbAYNDzckSAKwH3//D7f2io0nJN01KnTKDyTL9xN92/d2OLs8qWVbPnRtA/0F51tBQsWBRffkVWfIdRjDePxDx7Qmg3U53n2bi/mRVrmRTE/d3eqH7h+3QPr8JevK7wR0mc0nhYiRhxDPq7NF3eX7GorkD+ll1JQQ1SWhJVNUKWuYj9SZL+bpfX37FDyWn9X9Kv7dg54l2ZLAG7ntHt5UQD3kFO7+MtO2pSE6rs6FiwcWutrpdweqDVHw7vQ9/ij0VV8KexMDEfs+FW76A935PhMEJwRlJom8bmNQPknE0eUoFXTAwITxWloeS53Sk/2TSrQw0BJ4C8vKoV6X2C3Z+keS0qmPe62vzPAlTqzOSbjasUzaeE9v/3s0XiQ7LxlD05Q/5wx/qpMlsTYMkhyakfYYD1wwJui5pBfHCDs+FmwYl5gsjRf+Zbs+Wlq5L2lS3N5W2OCke0v91GrXKQMyWdE+hBTUSHZbqHU9OniY5rQFV9TkVV1sdUREET8Jksky3kTQWbPxbJO385W6vb22oWHCJYONvAQBVbWySk2bqpgyI6w7+B9Az39CMS/2PkkcwvTMkz4jGNaMHhlLprl6O61DfPF6sRPfCOJQ66Pm38Yz4Z0o46vSKGYkBxpIe2qQ54r2GqGif8LFEh+UPDRULikLRl7u9/hBJu1itzng6AIRFORvBzq+sL78iSb4LoR3LseLbEyD1/eCep6nyyfmQ8sxNXtjuGcGoaV4yXoWHkMd3qWebi3t6j+ffrPuCDnBnq+ffjZaYoZiQHSk4emC8eq8h+zbcdFVDxYJQlkhtJWkUlznjao6w8oGcwC7vFx0hrbvVLzqG2/esfkt0WjYkMlNyklKnnBXK/k8mBmI89WeHNUOKbznR1KZ43jvaySMUzyPX0/thOEVVDxo8EpqSVHdBiu2LVd3G+eGUIc9jczmukZjR1d7RvNJb/m7369xBW3V/dDW9Gktlig7LpoPv/+GS7oMfhPrEqnHpOUVX+tsoXqszkh4Y/YHktHYRtg2Y5LTaGyoWXAyjq3xvZg3cHQAwk1Y8R6XsGO/51ftdEdy5AS4gHgJgatR7VxgK8mhSHo2oMUGiwMmjTvlXfHsCJDiTPFW1otH49yeAeH4nDExWbvyRICQBY1XnSUWCjV8s2PkHaPXvbq9/j6RdTP7th4lua2j/hU+E1XN/YQ3cX2nHcVQ/6/asGiQyBJC6OUN1lWNCpXe6BO6Z6hoZnYrGU1pMXfswZe3zFd3GFnSa2hTQ7FHfzzEUpIIuRfZqqnUKR3RYHmioWOB3abpgIMl9gUy6qK6wqmDn/9avc8dNPq90sRo+LIlCMmSUJ39Vfg08j0cSv/ogj5VQozVZuvJ6wHU2rqqMZq6Zo0XiUz5NhaQD0TUVod0+HnqGYr5R7/dEEg8lQ5wU963H7YkHkkG7Q31bzkSH5T3Bzv9MclrVdNT2RwAwy58GxAlTsPOPkrYNpqHUQc/CggQhEbQfp6miVFni4WSAwyf4fSEZtNYYkIydX//myOiG4mhLlq7pErhyewHi1fR9QtTEgKfYRM953Z5j9tQ4cg+WlM9SAWJGoG/qt0ea8a0JoKnVfnXTHQY/F8u+DTfd3dlYvZl2IMcTbPyHrIHzK2HGBi8cugbYfui4vBlcOep+rJcoJHkenxxdKedZyabSZd/BcLTQgDyqwGSJviV2tIZt56UtnjrA0SLl0/GQ6PjmFjL5v1M3Z6jyUeuJCDZ+8Y4nJ5vVmCxlotPyT3/bEI0wXW11FpJ2IRcD4DpHgoHT+0bvylRa2UL+AiRsyfDsUQuXL4MSwunoI59Ez/U85IbHDUPH3GbVzhMHg9aeBt0JHZ6zeJN3p8C4MPl7iw7LJsHO3yU5rTbasYyFpDgCUcJ0t9c7SdrRMjhxAMRZHaDZqVX1KrxoSZb9OjdIBmoLrIMmTq0FyIeOPyo+fHkOwc7rGV093hL535fUmnQYShkMi6P7RmJHQDR3vN141YJf0I7FD/sBwOedIkSPZF3tdVUk7WiTR5uiuYN2GFFrMG3AU3AgEpMleA5rVue8c5yKihcoIhY8+3Hlz9JwUuRvNwqHZCnfBHdc3qzsyTghINj4V/x5PekIM2yPJBiY1A/tlzfBuM8YSD4QFgWOIoJSy+XVTI0bw8FTiSo+aMeZ0SRfnDt/3gLJdeNg3C6GdjhRaYgZ9CzOGswM28+XXxMpRCPMfumwlaSdasQC9OaL0DW7Ddxnjr18G5EbThj2FHDoKGqO+GSpZrEDEbu2z8Od1wudP23xzIkPJ9GtJxwtRmJHPD/v7gs7wjlZQkdj1eP+vJ7km3Sw98gOB0E71RkaPwi9Bd3QdXEbFoVWmPzz7L6o3VPtaCQBV8Og4BpOGfbMb3pKJ+J3OahcedLoDoQZPTCSHN6PxN3t9d2iw+LzFKPfCVOw8S/5HZXKDaWP7t3EY4iU4cobLbI9zODdPgqtodQhz2evF7/LihscP7oGwXV2BK1sH10tu93X16p/NjmE5Dsm+e40dUsG7VDC0kBmP7hmSmE38Y8ij3tGDwxO6PdUC4qT8DIXKFduD7i+G7E3Ic2+vtDvEabotDzjdzhhRL7Yy3dRyD/9bJ9n6w4mS6QW8mex6yc43RKIkbiR0VFl5CZLz7GRvr7W74QpOa3hVcmZgPxFa5/X5BkxoVPzbBU5trwfQiriOYMTb4L9Jt9odMwNv60ihBp9eZG/CXMHWSxhKAY8I6aBSSE97jOsyF+orovbouULNaYYd2SvRA13ni0oP23F0aaP5J+TfKMRLQQb/7ovr/PrWy7Y+PXEEYUp0dwJ0ve7aYehOke/UEPpyh6WHa7iO9Q7Txar0v2hoTacMrogqP90vAkey8DEvqhKll4+Lff197Z4I1ks4a1/qsuz8R6NkpOl9AP8eRxLtWXxPBWI1BsbDZK+C0eaJ+FZ4X5h9E2viE7L0768zq9vkmDntxJHFOb6z3SDmDgMjDWddijUDGkHPV8oLELwbTHD9I+RO5m4LkyY3xA/4hlBJR5MBk19CsSJ+PMZYgZBMnR6tuVEI8lpbQeAPgBIGut1Po8wRYelUpHIwtgA2w99U6KzMpBnvvInbZgsw1AMqDeZ0yR/lrtm4ypaWc/3u6M2WR4lOiynrPrjc8KUnNZPA44oAgxGYE3OU5FvEqJwTgNFg9jRVbS9M0XakVDjmiHB4ITou64dT3Ja953qNb6PMH18xhvp+r4TXSNM0dQBPT/ARU8osrmn93o+69HIldNLOwRVEOz8c6d6jT8jzNaAI0JhpfvCdhg4HR9X+QJXooY/+bMebfs1PSuG47HWs698TZjRs/8SwQiMVvfA/ZW+U/tK1FgX7hP1xdFKXyPx4V1U3FdD6fgdP5bosLw41p/79C2Kxv2X0Uw0d2Ky9JPaV6LGdUTYIdJBJH/2RaxcFZUkp/XgWH+Ot50E+iO4+k9PfhcMTsLHsP5S+0rUuG58ZOwPOWn2nIdz99FGdFqeGOvPfU2Y0bXS5RQkcye4siPriBtZt7kD+s7CbSORKGZE3QldjfqmuSJ+TnNIi5W6jiU5rWNWZPE1YZYrE07kcM3sAdf0yKjgP8QMQtclrTiyROg4nhNPLmmNuMQypBkC0dAJ/VMi92lZMPg2h2nnfarkHlXiRzxJMxLuQIeThiFmAJ/OI3Qi8uB8ODlyFgF5bpAva4UBHSbLkzjp3RFeJQMk34EOJ4T3lymhNRGYj9Ih4Ugi7VAQUpX4lgQYvynD8x2JFJIBFzSdwqGT/YG6l/aFAa1tPMRGwOgsBmKAsaSD+zu90Pu96K16gtBR8nc70ZlMOwxFdV/QEfUl8Hxw0qG3T1d6rc6IifUEEg8lR9wXKnnvOGC2pNEOI7wM4oKaSJP6YUbEfbdlmj0ptEMIB6ef7A98SpiMzmRUNJwIodkdmR++hJYkSN2YATG42d0n8SovWuAR3rMGIRMzEAOpmzIgPkL3rSa0Jqq+yIYKnHTE4OsV8UfKxRIZEoREiJMi94MX35UA6RsmQtIBDe1QVC8cLq5xXeqPkbbk3SmQXnUaxLdH9s8KR5nkcAhBKOnL6EgkKTtSgdkcvWeA+iImDB7JhsUomJKYvhjPZ3zcbi3tUEIi8XAyxPThpZ8E/tQIyHegkTi/cTIJrYmQtmGCZ8UgCk+xbqz0cyLyZzr1w8yIWgXrC61tPO0QVEmrM7Jj/blPCZM1cLcpFlGYk+/MUnYwtMMIuVhXHKRuyfDciau9bipCpxLfnOiZq5Q/03FReNKMfIOg2RWUR7NhPZJgdKabxvpzX0eYE7Q6XPcjS/mMgbju6B1pyV+08RszIbl+HO1QECIif3ZTt6ZH/FzlqWjqtPjU6Disgbt+rD/3+ZEsozPdp0hEwbc7WG8sj6yi6VHsWMZ9wYDWio91ZDH9OLMRLpiaNM9nF43SRMm8rR/OGusPff6mswZuviLhBFnnK8+uDtZ7p3yKX7RjJQrJkLopPer3IYbNMv0o3loS35bg2VuZ0JREOxRVSWhNhOQGRZ8WhW3RXVbP/flUr/Hn1vh7Wp0xXG5H9in9hvHNiRDfHl0LA3wh/0wy1p8GyVG8VD2+Mzwea0Xr3LPmCy2kfhS5eysD5dlPrlzxn7Ctu8cauBtO9Rq/niWxeu6ugCIKkc6Xn3lV6fdkLFj9ZizjarXAbInO0WbMUHj8naNta0mMK9azSE1TH703c76IGYxVbG+m+7NtTYq8UYhpdUYTAHznVK/zK2EyWaZTDllVYq+Sb5bcMA5ihsPjokhTQkuip1A1LiRQp2jaWiJ/BtM3TIy67SKkNHVagJHA38f92bYBJeIJNVbPXe7L6/xercDquXuJIgqhzleefV3JZ+njduLcpa/iuuM9S/VTtqfSDgVFKXlUKX8GkX+idW+mVmf8LpNlKvXltf4nTAO3iCiqEOt8+Zm/KfE+kVovNtiSDmogZRsmTRRazOY0HFUSSjycDLE90bfim9VzZb6+luSnw56u/9OVBO1Cyv3ZthcCfY+4rnhcdh2ApC81nrv9WDF6HgUiOuJbEkbPdG3FVbCBSNkeXaNMVs9dzGSZfu3r64luJyYbSoK2dUMp7v9td3S+/My1gbyH1h5dH55g8JTV++8ETJwoKOJbEyD9X6d5HsEmtOHIMlCeCkABPFXrfOXZBxQNKIi0OuOFrIH7wJ82xOPvnHlr3yVtGyqdrzz7lvuzbZtI2sY3J0CcGF2rCoPpaOJMboywCkFRvLeRNs1OLaRuzsAFeQrzbBEj22ZCdK2lITkjNzF3/rqN/rYjTphMlukyVs8VkbYPlc6XnykhaZfyKc6/BcO4zxlPtRUlVuSpQVw33lSFmufx6+Z00DTg+oJgiBmJIdqK0/nyM2GTMNOyC++W7+P9bRfQDC9r4NZrdcZZgbxHsLn/t327+7NtD/nTRv5CxvXghTBYEpqSIL16YkRsPwmnvY2RcKRT4qHk0cevuLAnqEjWboTL41itzjhxsqGEqNRrwN+g3Pnr/HoGTMORPy68x/3Ztvd9fT1jwfMfgy1mINZz4UuuC+9HtLGu8JmXDfdKN/KoUvsJritQoyN/KL6Idgy+yp2/bgdp7lPiljM2//b/Z+9u4Juq78Xxf9omTdomAdqKpEkvoCQITmXKUhNRisoVFdE2UZxujjkYu9v1f8H434PTgW5Tt2vUXXYd3DkHdz5dbFMnbKA8FYHExoJULdCkPElCUqBt2nPapEna/F4nDcpD6dP5nJxzku/79eI1V8onn0JyPud8Hz7fkzsR4nAqsHzJXABwD+d7xdK5JR3kNyoh7zOyEjkVxNwaT/HxGPJUmWLDXfwT3l//VLhhr+BrAPSvvdkBANrR/vlsyuuoQsjjlmQigta+dvVrQ31POgwTik1ec0Hi6UFyhvzdc0mMi2OYz+PYf1yW2CNIpFZi8c8Qaw0ixw43BpYv+W2qcmJDV1H1pFJrYvUknO132Z7EWOvHJKI2WO9kG4dLHevW/OdQq2bJvkt+ME8Pqo8KQXqS7KMj+jEXbNWuQshOg7lXMUos/hmix2xX7ZbvpCwhFhQa42yl1sS6sGfTPqfHX2f7d4yk1GXWfwp9EVBw7WrmH3jvQL+X0y4hwz48U348FvLJMWoZLSualRhxyD9Abl75Jjuad8nfYx4+Otat2Z/ShEaBqUn6yuphr2EZRCyxYoH2OevlhXppXtHUW9hGLJq28BEAcNA+J/oRWxhiLX6qq3bLdvmMmbfljC0cf+7vKfeMhewe4S7iiEMcskB8w2ojJQlKQXY4PzGX3Ds2BiDcf5LEDZaYbrJC07r4TuGScjpzQN5ckFh0l9Mt4H90RPGceOJJTqiyYtmJ1dXRCZHzvh45dvhP/n/77gO8JTZM8kL99KsWbtrE1E2WoQIH3iw3fjXWcXTz0qcorwNjH022usy6hUkUIRYnosePNLe98vy1AOA7+7XEeZedwp1DC11FQ+ecNuhViPZ81hHJjmQnhsdV24rIvHIGyP1SDmO2FkNeU+bsrYyNiwJlaofuqym+UxmU/Mj5K9nD++u3n/y+5ce8JTRMCo3x+ukP1zYCQDHbWG67eWG4zX3gvMkBT41lDtYBoJPnrXkOIw5Xwg17+wLLFl9/9v8LuQNNX14vhKZ3Qe+4GHT8aytEiyN8p5QyzJNGYvsJ7qnwaLIz5EmIS3kHCkBRn1nbRXpVMegsb4PYZVEIT+2GeLawO3mcXTEb3l9fG1i+5Da+8xkOfWW1EyOOv872Y9rn/Ij574s+7XGIB5Va03y2LyLNL74KAL6gfc6DbGNxJdbi7wKA/QWTbnywQMBHeIUnhyB2+ddFMjIxDJLTuRkzbMWQnpJBX24f9BYK6wmbudgLeRj/QqGrukBIo/rKj8YlmvRnEuaGt3NO23n/Dll9IOihfSa30LQuOPPCr74Za/GH+c5nKLqKqi0yVamObRzK6/jL8W3Lv2pycNEnnfY59yo0xnKZqnQS2xdTak0PUD7H9gjl/ZJtLK6EG/Y2KSYawwWxK27nO5dL6bqhE+Ky8+9AmaKZTeUIehgZW26LLHGjwNydx/OE0cQ1v0EpqnnliCYMcTn/TzOS01JQbS8CCS3evaGjwRRL6pb2i74el/VdNPQpNMdf/k556EB9E995DEVXUbVWqTVVso0Tam1qbHr37nnnfm3A9dp+l20BU0vYviD0Pxa/pdAYBX1FOfH7R37XeXq3IPsgRsf3QJ9y4E7IXYbO/ieGDJLYfrKzMDHnLARCXrAxkJwg/zdYzFN5YrtINLO2i0TU4QGLJSSGaHuhpzSU8pyGq/Pknte6PS5RNCdQak3fw4jT3rzhojOVB3zH0j4n5bab52G8KABo1YaRHaHCh+Z3HpgTLYoI7u4pNHXwghiaTgM9syNl+QhBVl8WqHaPA4VjLN+piA6fw/iS1mTT9EOZt12k67pOoI2Df07D+u6U5TMSlNdR21x9/xK+8xgOXUXVexhxmJ854HrpnQu/fslbPNrn3Im1P1OpNZXrKqpG1ACdD54a88x4Fv/DVWeFptGJRQFDifxLOLGKNtPkBmSJsxBJhyDhy/XJEiMDQp6n40rnzW3Qc+XQT4+9Y2IQniy0ohk/6nfZRLHIR22w/kKpNd2LEKo2uQD2IoPebtI+5ycKjbFUpiq9nm0GMlXpLAD4jPY5D7GNxZVYiz9CBRy1xVMXLuI7FwY1q33YCzSYwio5k1kLgSA5JCo7nge9Bb2JC04qSQO5IDshrgUrscsiw7oJw5TJR3FFiyMQnj78aZOoOiKobmNuu6WC9jmP8Z3HUBQa4+xJc1/5G0Yst918S4Tydg70e0NeXdsOrX9fXqjPyyuaOottIkqtaSEAtNI+p4ttLK5EO7zHFTfecasMxk/kMw/aEITeMSM7xTUyMQwxZQwkHZLEPsZMkntSDpKWXOgtjF60QIor0pbcxEIkMcnplKRs6I958k/MN2fQwrRzdV1LQfc3R77HMqaKgczHf+/cA2+WX919qqGe7zyGojZYb5009xWMXuZHD7xZPqv7VMPhS33DsB5Hgs0btyo0xhtlqtIpbDNSak13AcBOId+1tNX9bS3WSuHRiI2LQvd1oxti7VP1JoZ/Mm3bCSMnlJNYaZiK7SdZ4f7GCjkiOt4LkifxpKLbT6K13UFFolNMpunN64Xg/NPQWzS6J3nmM8z355fyObae2venl3hLYJiST5YoB3+47ebLu081tAz2PcN+N3tqLHcidQICdZl1h9B7znpqLHOixZE9fLx29zXsO39Qt7RD9PIelHzEpqBBlbhgZ9PcXXByvTKQtopzPo7LzknMhX7c+5dl5FwlJIdgO+a2sj44kc81Ccx13mO3zOUtgWFSaIxGfWU1Sk1y283ltM855B3OiP5Z/S7bHABA6RGrr6zeotAYBX1S85G/PPjLPllq9/sxH7hYMc4cE3VTEMJThLaIIDWYC/bYD4sTJ/RzQXZcXHOX5+Jqjkzx8RhQ7RqXkU+VcO4eSwn7KYHY+ChvHb38n9h+zssLj5DaYEXpJkd5HYton3NYW2ZG9M6mfU6mEj866szOJ1UbrHakWJzo+vLjnc1v35/Sk8RD03DvLLuvpYbcmpLOFJ+MgYJPVKgxpYFckHSId16OuZlgnsCxSM5IQblzXEafWRkd33PJPZajxcfNbuJJy+usS/kLj5Cuomo727Mtob9YbvHUWNYN9/tHPGYVobzH5YX6/LyiqTeNOLsLyFSlk+IQP0P7nJ+wjcUV5uftVcUiqstmcb60OlYYgdDV+MUtNj6SuFvNtBZkZ0k6+08/iY2LQl8BuxGDRIeaPYVoufElpzsnMXwamciuP0nuCRkoneNEN5eLqXsaDd034DdQ71P2Jhp0pOrvlvI5fhJwvVSVkhdjQVdR9SxSc4JPG9eVjWgx66jalMgL9ZLpD9dirU3v2reqRDjrqC9BZ67aoSxhf0czmO5rKAjruLurTFzsd4n/Ys8GZWq/6Kii4UrHv7/EMOJN7aM6Qi3viwLIcwv+o8uprhmd0HMFdx165O58yP+C+z7XiXnLS+w9FJLk2ZZY85Yy2ucc0cVgVJMN4TZ3jHl0H82fHUCBrqIKZZUTlzzViUVAnLWGio2NclosIblXs+u6AbcXZQylY1ziIjQSWdEsKHCNSbtiCcnh2cK/X/7VaRTDwdw4JPZWZnixDF1Fc1osIUXdf5hiKYbmBPJCvQ6rWJ6se3HlSIsljGZI9qwI5T2u0BiPy1Sl9402xlkyVekkhcZY0HZo/Ra2sbjU2b7rn4XTH7BmR7PRG4j2TA6lZEN5b2EssVdTCPu8+CI9JUs0eWAkDqi+hJx2CciP5YFyzziQdKZ3k3CmcJ5dDCTpkEJsTPS82+mcDgnIj+Ylvif/kCLjtixdiHky75qZopvPOJcnmcR7j29d/qiQt/mdVTr7uV/lFU29ESHUsRM7n6yIhVpH/AdZX/jVButT6jLrr9nGYbR7Nqw8unnpMxixuCIv1E+fPG/N+ryiqVdjxYypotB5extWuGGRtEqhYJ8Kcqj0LgTDwVz84heshpaeyoWsDGsOTgytVxmDntIwhFN86MHYfxRzcYyc98Cb5XeE29wHsANjUxusK9Rl1pVs44RamxqPbl5qCbe5R9VxjvW/AO1zfqTQGA/KVKX3s42VVzS1XKExjmk7tP4DtrG4Egu1nqb7Gp2F19xfmR3JRun31X0dlTitIJX68vsytsHBhZifn7lxOPdXVp+4TiEhuBcrjCS2asVGOQfORl9uH+T6cUeF3DXmO7tbGvahBuWArqJqftH0hf+DEMr5+V+uvSEWaj0z2gAoV8q2Q+sbsTrjyFSlRsrnqI1Q3uMYuXEhdvpkICuSlY+xrJlBl/F32kjiXE06s87VJIiRSiyOmo2zx3I0esfGUPfPJjfq70YLyBGFxji7pOyJDzFiue3m77KtK2hjTskVViiLYvSV1bUKjdGIEYsrAddLz0SLI6z7LEY0/B9e3vWtTuicldohYYIQi0sd+pxqkRKca0WotalmuBv1+aTQGCfoK6s3Y8Ty19nmYPzMqJM0brt5EfMAhhFLX1n9KkYcLjW/c/9jcQm7fX1YHwK2YuOjiWOICIL4WmQCfkOC0epV4vRHPrp56VMogTimNljfBgDW49D+OtvTfpcNZXUtasGkfc5jbrv5dqRwM4S+3SR08JOPPevZdQJK9ZFUg4ld1l8049nCOROUIPhC3RgE2hTkO42vRLTsb64pr+N2MSzyYa79SJ18av0u229wskIumPD1wdN3YMRKHjwt6M4TzM97umDLL0bzZ6NFkZQv9hlKYq/m9Zm9V5Mgwld2QbREWIcXjPS4vwslmxNsQ0uII7qKqruR1oc4sZsxcLJu3u+yfRhqbWrEiKXUmszyQv10jFhcOfHC916g/HtG/MgfG89Pc+WhRP4lnPENDojMFS2OjPp4Pa6Fp4xuO0vySetW9ISQKTTG2UqtaSNGLLfd/H2MOOfibKOZ32VbiBVr8rw1b2HF4oqn6v4RHwcWSvFerpHouTJE5jSJjCOUBT6XMrprRjzmd9m+Q/ucgp5rUWiM47E6+SQX+TRhxDoXZxvwwm3u06G2ps/H6e5hXTil+cUTmKfMYPNGQQ/Pth/esE1ZYporlRWPH+p7I5f3JJ7khKyvoC+xilfSKuVi0zRBCEZvfi+EvkFD9wz8JuqocvpPy8kOD/vz+OWBN+fM6j7VgHIsI1ekCrV28h2vbpHmD33tHMqRTT+0nPl83SaczM7H+e5szGa5YmkQrKus2qHUDD4GH5x3OtE8QCxkzXlQ8BnuMVkEIQSJp8qb21NwNcQhb8qH/MbhNWR3280FtM8p+ENxpz20oz6vaOoNbONwXSM47/1F+5w7Ka9jGUas5CKgn2LE4tKJw8/fHc8abPQjLqpiyeiZQoZoifTz1RCsSIolIzx1ePUv2ZxA8MVSbbDOwyiWABDwu2x3IsS5pJQ0y/TUWP7AVH6MWEqt6XfMUytGLK6EG/Z2u9+/9GkuoWnCnbsczFfbTkDQUyEEMSwRTVjQ85WDCesGv4ZQPscvRdKcYLa6zIoxfNrntpsfpH1OTue5UjYxFaFO/G+usnQ2Rvu8omkLH6R8jl1Cbp8XDXqPSyddkZWvmHZR4ez6VgfEpeIsOn0FfRArjoC0JReyeklzckKcQvou6L5e4POVg8imcyC3RTbg7yWHJRenPKkRUmiMV+orq98AgMvYxnLbzSidfIaSsise7XPG/S7brwAAY4hArjZYn1FojIK+Ygd2vfx/cMHTWDwrDn154hqOvRDzpCnWp2SC6CkNJRb4iFnPlZc8h7NRDGdbQv9Q7GsAwHrLIOV1/CNVT9MpLTi0z7nLbTffhRFLqTWVqw1WQW/CjfibD7r/fv7QbKqPBeJKzxVkTpMQn8Q5lt9Kjz3GoQGGZU/Wvfgn2ucU/B25rqLqfaxOPp4ay3ycrIaW8r0CyYOnO2WqUtbdgJIHT3e1HVrvwMkOX6TDezzntmt9BZErFyT+f2kYescJpx0eG30FfYkLkOzLPL5TIYghCX2P5UhJ26TnHSzNFI8vty3/Ca9JDYPaYL2jaPpCjDOUWxrXlV2DEGfYeBnS9NRYXqa8DpQ+sUqt6T+FvgjI+/z3Xus4szux6Kln8iWHUkQpsRDoljZg24SeILjUoxXvAp9LuaCJwT6/y/Zt/rIZnuQiH4wTSPrcdjNac5zh4m0O0FNjuRVr5ay+srpWXqifhhGLK4fffmDOGek2lJ9XaGLFUei4vRVi46J8p0IQF6Fv6IAuA39nznImCyCe079Gwm03P077nAG+UxqMQmO8Ql9Z/UeMWG67+VY+VgHzvvto2kM7Ps0rmjoDIdSBfatKrkaIw6kJL//5HfmMmSm/M0oVyWkpqHYV8p0GQaTdEOxA5O78095nF02kfU5BD11hNrBx28030j5nHUaskeJ9lenRzUsfRgo1XejHgTECy5c8iHXQthCd3atJEHzKhGLJOPbqQ3cJvVjKC/USfWX1+xixks0YeCmWIISCGW5zH6C8jvUYsZIrZ+dhxOJSYNliM/OZ5jsPrpBzNQk+RS/LjGIZXLv6rnDD3nq+8xjK2CnzfwkArPtqhlqb3uO7GQPvBRP65zMXYi0CUpdZNwl9EVC4YW9rYNniG/nOg0uJojmbPGkSqRW+oqu/L2yaC++v/01w3RpOGoxjYq7FJWVPrMSIdXTz0icx4rAhiIIJyUVAALAXI5a+snqbQmOcghGLK+GGvfuCa1c/xnceXOodFyPDs0TKJM6xvFbcDQmGI7y/vjawfMnTfOcxHPrK6nUYcfx1tnvCbe6DGLHYEEzBhP7x6X9HCpWjr6x+DSkWZ4Lr1vwxcuywoJsvsPXV8OygzegJgp2v5iwFdUXjRCC4drXgD4KG/uYEOwBgIts4lNfxtt9lQzlUmi1Bvb1on/Njt/3STctHaLYYFgGdXvnT/4/vHLjGFE1qVjv0KtOjYQMhLJHLezJizhL61z88GG7YK/i7T11F1XrETj4P4WTFnqAKJnx9HNjvMWIljwMTzF/2QKLHjxwI769fwXceXGOKJn1DR+JJgCCwhKd0A31TkO80UqKrdsvKcMNewa+wV2iMs5Va0/0IoY74XTasUUcUgjxGv+3Q+q3MX7pMVTqZbSyZqtRM+Ry1Qj7ZhP5gw075jJlXSSaUfIPvXLgUz+uDyMQwSE7nQk63IN96hIgwN2DDPRsyHZxe+dMFfR3tgr7jRN5vWUH7nJ9gxMIi2KtW26H168ZOmX+dNL+YdQefomkLHwGA3bTPeRQnO3z0BxuqpZOuUOROutLEdy5cY4omQ3JGCln8984gRKZXGQPqljaIXZ62O7MudMS3yDwrevyIj+9EBjN2yvxrpix4YwMAFLAMFT2y6Ydlnce3O5FSQyP4q5Wuosqu1JoqMGId2fTD64LNGz/DiMWVCS//+QP5jJn/ynceqZDTIQHlnrGQHRbsfRshMJnSkOBcgWWLZeGGvUJ/srxOX1m9HyOW226eQfucDRixsAluDvNCnhpLJQCgnPSqNlifwYjDpcDyJXcwT8N855EKvWNiQN0UJIuBiGEJTwxlXLEMrl19p9CLJfRvH0HpvuOvs80RarEEMRRM6D/j7WcYcfKKpt6nNlhRnla5FFi2+GYAaOY7j1RgiiZdlhmLNojRixZFoPuG9DjHcrjC++uXBdetwTjZg1PJ3QgytnEor+OvfpdN0AdUiGIsjPY56xUaY7lMVTqJbSyl1rRQ6IuAYi1+5sPymWLegkV855IKcVmcnKtJXFJiGHZ2Zj1ZJpsT/BvfeQxlguHxHxVPX8h6JWuotamx6d27WZ+RzDVRPGEy/C7bfQDQgxFLX1n9vwqNESMUZ8INe3cG166+i+88UiWxV9OYWRdFYmiZOGcJAD6xNCcoKXsCZR95e/OGxRhxuCaagkn7nB1uuxmr/+q/6Cur9yDF4kxw3ZpN4f31z/KdR6pE1RGyT5M4T/e1KMsXRCWwbPG3RNKcYAcAsN7FQHkd7wVcL32MkxW3RFMwob9o7vfX2eYghTPpKqo+QIrFmcDyJSsA4ADfeaRK94zMmqciLi00jYbesZm1ICywbHF5uGGvn+88hqI2WH+G0ckHAHZ6aiyCX1dylijmMM9F+5zHFBrjRJmq9JtsY8lUpVcCwH7a52zCyY4bkWNHPikon7uE7zxSIS6Lg7RFBtkh0b01CWS0KSiyW3p2wvvrXw6uW/M/fOcxFIXGOHvS3FfeQAj1udtuXhihvKJZ9SfKq1LbofV/lxfq8/OKpt7ENpZSa3oQAE4LraPEuaLHj5xkbrjlM2bO5TuX1IhDrl/OdxIEj8KTuyGqQVmyIArhxs/eC/zHo4/yncdQ1AbrA5PmvvIPhFDHDrxZXtl9qsGDECtlRFkwGcHmjVsVGmNYpiq9nW0spdZ0t0JjpNoOrRdcZ4mzwg179wDAbvmMmY/wnQvXesfGIO+ggu80CB5F1T2JhWAZoqPlpz+e2dfRLuh5y+STJUax7HDbzRO7TzUEEGKllKgHPDw1lt9RXgfKvh2l1mQT+sHTwXVrtoX31wv+0FiCYCumypy5y8CyxfdGjx/p5TuPwSg0xhsRe8TeS/ucolzdJ+qCCf3bTeYAAMqeSn1l9YcKjXEMRiyuBJYvuSu8v17Qm3sJgq2+AkHXDzTh/fWPieEEEn1l9esYcSiv4we0zyn4n/dSRF8waZ+TuWO5ASlcrr6yuh4pFmeCa1ffydROvvMgCK5kZ8BpNuH99X8NLF/yR77zGIquomob0vaRVZ4aC0rh5UtavCsjlDcUhzggLXMuFEEnoFh4f329Yt6C76bDTc9AyBxmZutTxtJ9DnOn99t3C347ha6i6v+UWtN8tnGSB0E/iJMVf9LmYhts3vhbAEDZxKevrK5WaIwSjFhcCTfs3RlYtvg2vvPgQq6XdVtKghCyvsCyxQv5TmIoaoN1nlJregAhVMjvss1DiMO7tCmY4TZ3zG03L0AKV6Q2WLcgxeIMUzTD++vf5TsPbJJTuXynQPBMGkjfm6bAssW3hhv2tvCdx1DUZVaUBYYn6178He1zpsUeobQpmNA/n7nTX2f7AUYspdZUrquosmHE4lJg+ZIH0m0RkPxYPt8pEDyTtEtBclrKdxrogmtXPyWGRT5qg/VpjDiU11EbcL0k+GMVhyst5jDPRfucnwLACaXWdC/bWDJVqVFeqC8MNm8U9BE79Acb1inuqqjMLlBczncubBW4VCDpTL8LJTFy2aFsiEwM850GmuDa1b8IrlvzPN95DGXyvDUrL7t2EesiF2ptajy+bfncWKg1LZ4uIR0LJnxdND9Wak3fYRsrr2hqmUJj/EbbofWCHvoMfeLYprpv4WN858FGrk8G+QeVfKdBCEROtwSyItkQnSDKLXvnCa5d/R/BdWsEP2Klq6haNmby7RhF/ePP/3LtDelULCFdCyb0F83DCo3xBpmqdCrbWDJV6XQA2E37nEdxssPX19HeBgAfyWfM/B7fuYxGTrsEVLsL+U6DEBhJuzRxgk1fQR/fqYxaeH997Znfrfgx33kMRaExzi4pe+IdjFhuu3lihPIKunPRaKRtwYT+nrNvIx48/YjQt5uEG/Yek8+YqZdMKLmG71xGIqczBxSusZAdSaspdQKJ7Ms8iBZFRdvMwPvtuyfzncNQFBrjzfrKapS5VbfdXE77nMcwYglN2l+hPDWWOVjHY+krq7crNMYSjFhcCSxf8rCYFgExxbJg7xjIoQW9i4fgmWr3uMR7RWzC++tf4zuHoSg0xiy1wYpy7q6/zvaAmDv5DCXtCyb03/FgDYdkqw3WN5FicSa4dnUFADj4zmMo8kMFoHCMSwy7EcRQxmwthryDBXynMRK1geVLBH8sn9pg3Y7R9IXyOjb5XTZBr/VgS3y3bKOQHEatw1gEJFOVTlJojFcLeRFQrMUfDu+v36uYt+BHfOdyrmwqB+RH8kHpHAf5jQqQns6F7GhG3LMRSKRnchNdoHI6JRDPAehTCnaYtvfYnG9eyXcSQ9FVVD2PcV1krq+N68qwDvcXrIwomNC/CKh57JT535DmF09nG0umKr061Nb0abjNLdiDp2Mt/pbw/vpaxbwFi/jMI9crA9nRfFA6xiWKJXPBy+rL4jMlIg3kUBKQeeWJ4ikNyCArkgWxoiiAQN5agWWLb4q1+L185zGY5CIflCHjdF3kc6GMKZjQXzQbL7t20U8wYskL9dee+XzdqxixuBJr8R+Xz5h5UjKh5J6UvWgcQO7JB2lLLqh2FUKuT06GXAlOZYdzQHpaBnmHFCA9KYPsnmyIS+IQz+NnZW1w7er76A82bOPlxYdJoTHO0ldWf4QRy203z07XRT4XyqiCGQu1ng61NX04TnfPd9n+7NL84vFjp8w30T7nm7FQK16SyOgPNuyTTrpCmjvpylu4iC9plYLUL4M8T0FiTrKgQQXSU7LEkyRBpFp2T07ivSc/lp+4cZMEpSBpk0JWNAv6ZH0AHK8tC65d/fPgujV/4fZV2MmfcL12quXv2wGA9YRwy6drft7a+MZbOJkJn0AGMFJLoTHOxjoMNdmFX/Bj9xNe/vMS+YyZ/8M2DnPhkTfnJy5C0pb07fdJpK+Qvgtil0UgejluQ4Tg2tW3B9etEfSTJWPaQzu+yCuaejXbOGK59mHKyIIJ/ZPddyu1po0YsSiv46+eGsujGLG4NOHlP2+Vz5g54hNO+otjLkjO5CYW6hBEughdRSeGb8O6blZXw/D++trA8iWCLx66iqqFSq0JoznBrn2rSjgZtRKyjC2Y0P/m2a7UmlDe5MnNuoLffzRpx6dHAGDIjdSyo3mQHc4G2eF80lCAyAgRTRh6VTHo0YZHuvp257E538Q4i5dTiCNrcbfdPEcM1ztsGTWHeaG2Q+vXYXUCKpq2cBHlc2yPUN4vcbLjRhygJW/GTMtAv3fuitbcQP88ZFZvRt9TERkkh5L0z38eyQdZc35iNXdfQS/EpYMu/owfm/NNMXTymaSvrK7H2HufqcUSMr1gQmKP5okPiqYt/HdAWA5QNG2hkfI5Xo1Qwl1N3tOw9wv5jJnlkgkliZsE+aECyGtUgGLfGLKilSCSmGKZKJ7NBYmtK9CbBVmxrIuePINrV88JN+wVbLvMs76xyPUeAFzBNo6/zvbztkPrBd+8hSvk8SFDFwFd8+yxg9LTuVfxnQdBiE20OJJYNNR2ZMNLLS9arXznMxRdRdUOpE4+ori2cYlMTn198PSIF8MMJHnw9AaMWFxqfvv+H8Sz0n6fMUGgO9ttqON1YW8fgf5ieT9GsQSAXZleLIEUzK/5XbbtlNexAyOWUmuazzy1YsTiSujgJw5PtUXwCxUIQogon+PpcJsb5VAHrjDXIKXWtB4jlttuxmifJ3qkYJ7DU2O5lfI6UIZm9ZXVtfJCvaCHPJkn69b4dtYnqxNEJqF8jiqP3fIbvvMYjEJjnIg1zZTcASDoxYypQuYwB3D9YyexxioP7FtVwnqDMNcw53AJIp1RPscSj90i6CO7ED/PQbfdfCftc36MECstkCfMATB3VEihpusqqlCGebnEPGmeaHrhcb7zIAghSyx6EXixlBfqdYhPlveRYnk+UjAHwBQQyuv4AUas5CIgQQ/fME5/+F8vdwb2kKdMghiYRwyLXtQG62KkUEczda/lYEjBvARPjeV1xEVAvxT6IiBG87v3z8GawyWI9BHvddvNBr6zGApzjRmnu+enCKGibrv5+whx0g4pmINAXgS0TQxF88SR5+/pzeuN8p0HQQiF2265jfY5g3znMRiFxni1vrL6dYxYbrt5Lnm6HBgpmEPwu2xPAgDGhyVHX1n9jEJjFHQrnXDDXrql9uXf8p0HQQgB5XP8RgzFQ22w/hGjkw/ldawXw8/LF7JKdhgysRPQtSuOeSVtuRq+8yAIvlA+x/seu+VevvMYiq6iapNSa5rHNo5Yrk18Ik+Yw5BcBLQEI1ZyEdCzGLG45H7PPIPvHAiCL3GIh8VQLNUG6z0YxRIAjpFiOTRSMIfJU2N5jfI6tmDEUmpNT6sNVkF32Qk37D2DuL2GIEQlORUjaAqNcba6zPo+Qqio225ehBAn7WX8aSUj0XZo/d/khfqpeUVTr2EbS6k1MW/QA7TPKdj2WhHKezyiDu9TFc/6dlYfGb0nMkN784ZXvbW/fJrvPAYzdsr8O6YseOMNpm6yDOU+8Gb5nO5TDfVIqaU1chUcBV1F1XtKrQlluObIph9eG2ze+DlGLK6QTkBEpqB8jh0eu+VWvvMYDObn0W03X0/7nJ9ixMoEZEh2FDw1lvtCrU2NGLHUBuvbGHG4RPucO08pP0Rp5EAQQpXs5CP0YqnQV1ZvwoiV7BFLiuUIkII5Su3NG/6EESevaOrVaoNV8IsLvM8ter3z9G7ylEmkpTjEY36XTfCfQ7XBuoG5bLCNQ3kd/z/ZPjJypGCOUsD10n9TXsdWjFjqMut7aoNV8E0Nmt95YE60OEI+ZETa8dgtt9M+ZyffeQxmguHxFRhnW4Zamz731FhexMkqs5CCyYKnxjIXAFCaE6vLrLUKjZH1YiKueaotP+gtiPXxnQdBYDnpevEXYnjaKil7YjlGHL/L9l22MVasWAHxeDzjfpGCyZLbbv4JVix9ZfWrWLG4Ev6s/vDhvy28NZ6NdQIaQfCH8jneC9S99ALfeQwleerRGLZxKK9jTbB5YwNOVpmHFEyWaJ9zH+J+xVliOQ6s1f8eOXiaELXkIp8KvvMYiq6iaiPGUGyyk8+PcLLKTKRgIkh2AvoZRqxkJ6B/w4jFpcDul9+OFke+4DsPghgNsbSBU2iMs5Va090IoRr9LhtZ6c4SaVyApO3Q+j0A0KfUmlh/CGWq0sQHRMjzKr1UW2v70fffkl93g0wem2DkOx+CGK52z4Z3D298ZD7feQxFbbAumzT3lXfYxgm1NjV6aiyW7lMNHpzMAMrLyxO/Mg0pmIhon/MjhcYYlalKb2Mbi3nSVGiMwbZD6+twssPX19He0+5484NYYfT4mKJZ9/GdD0EMhfI6Xji88RHBD0uqDdY71GXWNxBCUUc3L9V1n2oIIMT6SqYWTDIki8xTY3mO8jpQmhEotaZX1AYrxnAMp05v/q+1B7ffOy02NnqS71wIYmDxuNtuLvfUWH7BdyZDUWiMBnWZdTNGLLfd/C3a5wxjxCJIweSEp8byEAB4MWKpy6wb5YV61huVuRZq/OTQZ7+eqOlo37Wd71wI4lyU11HrtltyhDzFcS59ZbUDI06yk08TRiyiHymYHHHbzdcDAMp+RbXB+jxGnFQ4/MbC25r+XlneGdhDugIRvKJ8jh3Jp8o5tM8pin1Q1z92shZjqozyOlaJ5QZBTMgcJkcilLc7DvEsjOXgeUVTb6R8jtoI5T2Okx23oh3e420H3l3Xq4gdU40nc5tEajGFsu3g+qXHty5fIZbPDPRvH3lLpiplvRgpuQL4QZysBkbmMAl0weaNzwEAjRFLX1n9rkJjFNUNzqntf1i3b1VJlt/14krSUo/gWmdgz8Yjm39Y6bFbbvW7bChn16bK2Cnzr1NqTd9GCHXQ77LdhRCHGAA53otjCo3xKn1l9UGkcK59q0rKkGLxYvyt//F9xSTjN8Yob36cnLFJsBHPiW8JOF7a09my5/2u4x+L+tSNaQ/t+CKvaOrVbOOcrHtxWcD10h9wsrq0FStWwMqVK7l+GcEhV6wUwDy/jvI6tntqLKy3rQhFrnpK8dhpd9+XQ0s0fOcyEvGs+MXjM1kQT/w6//v6LvqUZcVjA/y53vP+XDbzPVnnxIoz3xO5IFIvZMGFsUID5Hrh1yKQBdEL/lwPwNexmLyzIKvrgpx6s/qg+7yv5UAn9J3/M5/556qOC3MgLk1tsD6lLrP+mm2cVDZjyNSCKeE7gUxA+5w7/XW2H6jLrH9hG0upNd06ed6al49uXorSiJlvEX/zmVP+P7zGdx4EwYfJ89asGKe7h3XlCbU2vX9i55OP4GRFXAopmCnid9leZ/5HXWb9J9tY43T3LJPkFZV4aiwLcbIjCCLVdBVVzym1Jox9oXUH35oj+LM80wFZ9JNCfpdtE+V1PIYRS6k1PaCrqPoVRiyCIFIr2SMWo1i2uO3mmxDiEMNACmaKeWosf6S8DpT5TKXW9AzzwcOIRRBEaig0xllYaxrcdvNC2ufsxYhFDI0UTB4kJ+YPYcTSV1ZvU2iMl2PEIgiCWwqNkfnM/g0jlr/O9iBpTpBapGDyxG03fwspVI6+snovUiyCIDikNlh3AMAktnEor8Pmd9n+DycrYrhIweQJ7XPS/jq0DcaaCYbHlyHFIgiCA7qKqt8iHgT9BE5WxEiQgskjv8u2KdTa9DpGrJKyJ55XaIyCb9JOEJlIbbAuUGpNTyKEOuV32W5HiEOMAimYPDu6eakNKZRcbWC/ZYUgCFwKjfEmdZn17xix3HbzA2SRD39IweRZuM194MimH84CgCNsYym1pvJpD+3YJC/UT8DJjiAINuSF+mx9ZbUdI9aJXSseJot8+EUKpgAEmzfucdvNj2LEyiuaOq909nMoB1gTBMFO6ezntgHAeLZxKK+j9vT+P7+FkxUxWqRgCkSyfR7K3ATzpKmrqHofIxZBEKOjq6gyYyzyAYDdqeoRSwyOFEwB8bts2yiv412MWEqt6R61wToPIxZBECOT7ORThRHLbTffjBGHYI8UTIHx1FgewOoEpC6zblJojLMwYhEEMTwKjbEUsZNPOe1zYoQiEJCCKUDJ4Zd9GLH0ldW7FBrjlRixCIIYnEJjzNFXVv8vRix/nW0BWeQjLKRgCpTbbn4cK5baYCXHZxFECqgN1q0AgNGc4D2/y7YBJysCCymYAkUWARGEuGB18kku8qlAiEMgIwVTwJKLgFCONVdqTffoKqqewohFEMT5kot8MDr5kEU+AkYKpsB5aizPhFqbGjFiKbWmX8sL9dMxYhEE0Y8ploiLfGaRRT7CRQqmCBzdvNQAAB0YsaY/XNuoq6iqxIhFEJlOV1G1A6lYdrvt5rG0z7kHIRbBEVIwRSDc5mY+TPdixVNqTdW6iqqfY8UjiEw0ed6aF5DmLOFk3Yu/p31OlJtigjukYIoE7XPupLyOuVjxlFrT88zdsUJjvAwrJkFkAoXGmK2rqPpwnH6UkjYAAAOGSURBVO6enyGF3BlwvfQMUiyCQ6RgioinxrKV8jq2YsVj7o71ldX71AYrOS6IIIYhOV/pVGpNWDevMbfdvAIpFsExUjBFxlNjmYvVCShJqy6zbtFVVG1XaIxTEOMSRNpQaIwqXUXVi8n5SgNWXLfdfDtpTiAeEr4TIEbO77Ldp9SavgQAFVZMpdY0R6k1eSiv48MTO5/8XrjNHcCKTRBipdAYC9UG638rtaYHsWP762yPk2IpLuQJU4Ron7PDbTcv4CK2Umv61+kP1/p1FVUrmYsFF69BEEI3dsr8a5IrYFu5KJaU11Hrd9lexo5LcIs8YYpUshNQubrMijk8+xWl1rSC+QUAZ/x1tj8CQB/lc/ye9jl7uHg9guCTQmPMUmpMTwBAvrrMuggAJnH4crXkuC5xIgVTxPwu206FxviGUmv6DocvU6wusya6DanB+mzya3Z/ne0zDl+TIFJCXWa9EgAeTuFoW8BtN9+dotcikJGCKXKeGst31QarR11mTeWy9Ep1mZU0PyCIEQi1Nn1xdPPSheE2dzffuRCjQwpmGvC7bM/GIZ5VUvYESt9ZgiBwUV7HDk+N5Va+8yDYIYt+0kTA9dIzlNdBjgMiCIFhPpekWKYHUjDTiKfGsoDyOmx850EQxFcczOeS7yQIHKRgphlPjeUJt92M0t+SIIjRo7yO2n2rSm7iOw8CDymYaYj2OXe67Wbmg7qb71wIIhP562xPkq0j6YcUzDRF+5yOfatKbqa8jt/ynQtBZJA9bru53O+yPc93IgQ+UjDTnKfG8lRyiPZjvnMhiHRGeR0v7FtVMou0u0tfpGBmAOYDvG9VidFfZyN7JwkCGeV11Lrt5iJPjeUXfOdCcIsUzAzid9lqPv/rDaXtng2/BoBGvvMhCDFr92x45cCb5Vd7aixzaJ+zje98CO6RgplhorTfe3Tz0l/tW1XyDbfdfBnldbzNd04EISL7/HW2+/etKsk6unnp8nCb+wDfCRGpQzr9ZDDa5zzjqbE8BAAPqQ3WB9Vl1mUAUMZ3XgQhNP4620rK51hD+5zk2LsMRgomkeB32d5hfjH/rTZYf6TQGDVKrelJMgpBZKJQa1NVsHnjF5TP8Trtc57gOx9CGEjBJC7id9lWJ//zaYXGOEapMT169rBqhcY4Qak1VQLAeH6zJAgUW/11tnP3K3/kd9l28JgPIWD/LwAA//8yTD+eTvK0ggAAAABJRU5ErkJggg==;" parent="1" vertex="1">
          <mxGeometry x="960" y="640" width="70" height="70" as="geometry" />
        </mxCell>
        <mxCell id="ap4Xrjzt4KRfhGc9eB9q-6" value="" style="rounded=1;whiteSpace=wrap;html=1;strokeColor=none;shadow=1;glass=0;" parent="1" vertex="1">
          <mxGeometry x="40" y="260" width="210" height="180" as="geometry" />
        </mxCell>
        <mxCell id="ap4Xrjzt4KRfhGc9eB9q-7" value="" style="shape=image;verticalLabelPosition=bottom;labelBackgroundColor=default;verticalAlign=top;aspect=fixed;imageAspect=0;image=https://datasolut.com/wp-content/uploads/2019/11/MLFlow-logo_white.png;" parent="1" vertex="1">
          <mxGeometry x="50" y="285.89" width="200" height="100" as="geometry" />
        </mxCell>
        <mxCell id="ap4Xrjzt4KRfhGc9eB9q-8" value="" style="rounded=1;whiteSpace=wrap;html=1;strokeColor=none;shadow=1;" parent="1" vertex="1">
          <mxGeometry x="40" y="530" width="210" height="180" as="geometry" />
        </mxCell>
        <mxCell id="ap4Xrjzt4KRfhGc9eB9q-10" value="" style="shape=image;verticalLabelPosition=bottom;labelBackgroundColor=default;verticalAlign=top;aspect=fixed;imageAspect=0;image=http://3.bp.blogspot.com/-xiBNHcpxjWE/TndsywouDGI/AAAAAAAAAoY/X3SPSn0bhcE/s1600/postgresql_logo-555px.png;" parent="1" vertex="1">
          <mxGeometry x="78.25" y="530" width="133.5" height="148.33" as="geometry" />
        </mxCell>
        <mxCell id="6p9BF7gvtgwccBNczHRR-1" value="" style="rounded=1;whiteSpace=wrap;html=1;strokeColor=none;shadow=1;" parent="1" vertex="1">
          <mxGeometry x="300" y="530" width="210" height="180" as="geometry" />
        </mxCell>
        <mxCell id="6p9BF7gvtgwccBNczHRR-2" value="" style="shape=image;verticalLabelPosition=bottom;labelBackgroundColor=default;verticalAlign=top;aspect=fixed;imageAspect=0;image=https://min.io/resources/img/logo/MINIO_wordmark.png;" parent="1" vertex="1">
          <mxGeometry x="315" y="596.5" width="180" height="27" as="geometry" />
        </mxCell>
        <mxCell id="6p9BF7gvtgwccBNczHRR-3" value="&lt;font style=&quot;font-weight: normal ; font-size: 20px&quot;&gt;Model Metadata&lt;br&gt;&lt;/font&gt;" style="text;html=1;strokeColor=none;fillColor=none;align=center;verticalAlign=middle;whiteSpace=wrap;rounded=0;fontFamily=Verdana;fontStyle=1" parent="1" vertex="1">
          <mxGeometry x="55" y="670" width="180" height="30" as="geometry" />
        </mxCell>
        <mxCell id="6p9BF7gvtgwccBNczHRR-4" value="&lt;font style=&quot;font-weight: normal ; font-size: 20px&quot;&gt;Artifact Storage&lt;br&gt;&lt;/font&gt;" style="text;html=1;strokeColor=none;fillColor=none;align=center;verticalAlign=middle;whiteSpace=wrap;rounded=0;fontFamily=Verdana;fontStyle=1" parent="1" vertex="1">
          <mxGeometry x="315" y="670" width="180" height="30" as="geometry" />
        </mxCell>
        <mxCell id="6p9BF7gvtgwccBNczHRR-5" value="&lt;font style=&quot;font-size: 20px;&quot;&gt;Experiment Tracking&lt;br&gt;&lt;/font&gt;" style="text;html=1;strokeColor=none;fillColor=none;align=center;verticalAlign=middle;whiteSpace=wrap;rounded=0;fontFamily=Verdana;fontStyle=0" parent="1" vertex="1">
          <mxGeometry x="30" y="390" width="230" height="40" as="geometry" />
        </mxCell>
        <mxCell id="6p9BF7gvtgwccBNczHRR-6" value="&lt;font style=&quot;font-weight: normal ; font-size: 20px&quot;&gt;Minikube&lt;br&gt;&lt;/font&gt;" style="text;html=1;strokeColor=none;fillColor=none;align=center;verticalAlign=middle;whiteSpace=wrap;rounded=0;fontFamily=Verdana;fontStyle=1" parent="1" vertex="1">
          <mxGeometry x="935" y="720" width="120" height="30" as="geometry" />
        </mxCell>
        <mxCell id="qvyCjxB70agYPjTjunsr-2" value="" style="rounded=1;whiteSpace=wrap;html=1;strokeColor=none;shadow=1;" vertex="1" parent="1">
          <mxGeometry x="430" y="10" width="210" height="180" as="geometry" />
        </mxCell>
        <mxCell id="qvyCjxB70agYPjTjunsr-3" value="" style="shape=image;verticalLabelPosition=bottom;labelBackgroundColor=default;verticalAlign=top;aspect=fixed;imageAspect=0;image=https://upload.wikimedia.org/wikipedia/commons/thumb/1/1b/Traefik.logo.png/1200px-Traefik.logo.png;" vertex="1" parent="1">
          <mxGeometry x="493.13" y="25" width="83.75" height="115.52" as="geometry" />
        </mxCell>
        <mxCell id="qvyCjxB70agYPjTjunsr-4" value="&lt;font style=&quot;font-weight: normal ; font-size: 20px&quot;&gt;LoadBalancer&lt;br&gt;&lt;/font&gt;" style="text;html=1;strokeColor=none;fillColor=none;align=center;verticalAlign=middle;whiteSpace=wrap;rounded=0;fontFamily=Verdana;fontStyle=1" vertex="1" parent="1">
          <mxGeometry x="420" y="155" width="230" height="30" as="geometry" />
        </mxCell>
        <mxCell id="qvyCjxB70agYPjTjunsr-9" value="" style="aspect=fixed;perimeter=ellipsePerimeter;html=1;align=center;shadow=0;dashed=0;spacingTop=3;image;image=img/lib/active_directory/internet_globe.svg;" vertex="1" parent="1">
          <mxGeometry x="970" y="-177.5" width="80" height="80" as="geometry" />
        </mxCell>
        <mxCell id="qvyCjxB70agYPjTjunsr-15" value="" style="shape=flexArrow;endArrow=classic;html=1;rounded=0;labelBorderColor=none;strokeWidth=3;fillColor=#000000;" edge="1" parent="1">
          <mxGeometry width="50" height="50" relative="1" as="geometry">
            <mxPoint x="515" as="sourcePoint" />
            <mxPoint x="515" y="-110" as="targetPoint" />
          </mxGeometry>
        </mxCell>
        <mxCell id="qvyCjxB70agYPjTjunsr-16" value="" style="shape=flexArrow;endArrow=classic;html=1;rounded=0;labelBorderColor=none;strokeWidth=3;fillColor=#000000;" edge="1" parent="1">
          <mxGeometry width="50" height="50" relative="1" as="geometry">
            <mxPoint x="555" y="-110" as="sourcePoint" />
            <mxPoint x="555" as="targetPoint" />
          </mxGeometry>
        </mxCell>
        <mxCell id="qvyCjxB70agYPjTjunsr-17" value="" style="rounded=1;whiteSpace=wrap;html=1;strokeColor=none;shadow=1;" vertex="1" parent="1">
          <mxGeometry x="300" y="260" width="210" height="180" as="geometry" />
        </mxCell>
        <mxCell id="qvyCjxB70agYPjTjunsr-18" value="" style="rounded=1;whiteSpace=wrap;html=1;strokeColor=none;shadow=1;" vertex="1" parent="1">
          <mxGeometry x="560" y="260" width="210" height="180" as="geometry" />
        </mxCell>
        <mxCell id="qvyCjxB70agYPjTjunsr-19" value="" style="rounded=1;whiteSpace=wrap;html=1;strokeColor=none;shadow=1;" vertex="1" parent="1">
          <mxGeometry x="820" y="260" width="210" height="180" as="geometry" />
        </mxCell>
        <mxCell id="qvyCjxB70agYPjTjunsr-26" value="" style="shape=image;verticalLabelPosition=bottom;labelBackgroundColor=default;verticalAlign=top;aspect=fixed;imageAspect=0;image=https://fastapi.tiangolo.com/img/logo-margin/logo-teal.png;" vertex="1" parent="1">
          <mxGeometry x="285" y="295" width="240" height="86.77" as="geometry" />
        </mxCell>
        <mxCell id="qvyCjxB70agYPjTjunsr-28" value="&lt;font style=&quot;font-size: 20px&quot;&gt;Model Serving&lt;br&gt;&lt;/font&gt;" style="text;html=1;strokeColor=none;fillColor=none;align=center;verticalAlign=middle;whiteSpace=wrap;rounded=0;fontFamily=Verdana;fontStyle=0" vertex="1" parent="1">
          <mxGeometry x="290" y="389.01" width="230" height="40" as="geometry" />
        </mxCell>
        <mxCell id="qvyCjxB70agYPjTjunsr-29" value="" style="shape=image;verticalLabelPosition=bottom;labelBackgroundColor=default;verticalAlign=top;aspect=fixed;imageAspect=0;image=https://fastapi.tiangolo.com/img/logo-margin/logo-teal.png;" vertex="1" parent="1">
          <mxGeometry x="545" y="295" width="240" height="86.77" as="geometry" />
        </mxCell>
        <mxCell id="qvyCjxB70agYPjTjunsr-30" value="" style="shape=image;verticalLabelPosition=bottom;labelBackgroundColor=default;verticalAlign=top;aspect=fixed;imageAspect=0;image=https://fastapi.tiangolo.com/img/logo-margin/logo-teal.png;" vertex="1" parent="1">
          <mxGeometry x="805" y="295" width="240" height="86.77" as="geometry" />
        </mxCell>
        <mxCell id="qvyCjxB70agYPjTjunsr-31" value="&lt;font style=&quot;font-size: 20px&quot;&gt;Model Serving&lt;br&gt;&lt;/font&gt;" style="text;html=1;strokeColor=none;fillColor=none;align=center;verticalAlign=middle;whiteSpace=wrap;rounded=0;fontFamily=Verdana;fontStyle=0" vertex="1" parent="1">
          <mxGeometry x="550" y="389.01" width="230" height="40" as="geometry" />
        </mxCell>
        <mxCell id="qvyCjxB70agYPjTjunsr-32" value="&lt;font style=&quot;font-size: 20px&quot;&gt;Model Serving&lt;br&gt;&lt;/font&gt;" style="text;html=1;strokeColor=none;fillColor=none;align=center;verticalAlign=middle;whiteSpace=wrap;rounded=0;fontFamily=Verdana;fontStyle=0" vertex="1" parent="1">
          <mxGeometry x="810" y="390" width="230" height="40" as="geometry" />
        </mxCell>
        <mxCell id="qvyCjxB70agYPjTjunsr-33" value="" style="endArrow=classic;startArrow=classic;html=1;rounded=0;labelBorderColor=none;fontSize=22;strokeWidth=3;fillColor=#000000;entryX=0.76;entryY=1.001;entryDx=0;entryDy=0;exitX=0.5;exitY=0;exitDx=0;exitDy=0;entryPerimeter=0;" edge="1" parent="1" source="qvyCjxB70agYPjTjunsr-17" target="qvyCjxB70agYPjTjunsr-2">
          <mxGeometry width="50" height="50" relative="1" as="geometry">
            <mxPoint x="720" y="410" as="sourcePoint" />
            <mxPoint x="770" y="360" as="targetPoint" />
            <Array as="points">
              <mxPoint x="405" y="230" />
              <mxPoint x="590" y="230" />
            </Array>
          </mxGeometry>
        </mxCell>
        <mxCell id="qvyCjxB70agYPjTjunsr-34" value="" style="endArrow=classic;html=1;rounded=0;labelBorderColor=none;fontSize=22;strokeWidth=3;fillColor=#000000;entryX=0.5;entryY=0;entryDx=0;entryDy=0;" edge="1" parent="1" target="qvyCjxB70agYPjTjunsr-18">
          <mxGeometry width="50" height="50" relative="1" as="geometry">
            <mxPoint x="590" y="230" as="sourcePoint" />
            <mxPoint x="770" y="360" as="targetPoint" />
            <Array as="points">
              <mxPoint x="665" y="230" />
            </Array>
          </mxGeometry>
        </mxCell>
        <mxCell id="qvyCjxB70agYPjTjunsr-35" value="" style="endArrow=classic;html=1;rounded=0;labelBorderColor=none;fontSize=22;strokeWidth=3;fillColor=#000000;entryX=0.5;entryY=0;entryDx=0;entryDy=0;" edge="1" parent="1" target="qvyCjxB70agYPjTjunsr-19">
          <mxGeometry width="50" height="50" relative="1" as="geometry">
            <mxPoint x="660" y="230" as="sourcePoint" />
            <mxPoint x="770" y="360" as="targetPoint" />
            <Array as="points">
              <mxPoint x="925" y="230" />
            </Array>
          </mxGeometry>
        </mxCell>
        <mxCell id="qvyCjxB70agYPjTjunsr-36" value="" style="endArrow=classic;startArrow=classic;html=1;rounded=0;labelBorderColor=none;fontSize=22;strokeWidth=3;fillColor=#000000;exitX=0.5;exitY=0;exitDx=0;exitDy=0;entryX=0.237;entryY=0.999;entryDx=0;entryDy=0;entryPerimeter=0;" edge="1" parent="1" source="ap4Xrjzt4KRfhGc9eB9q-6" target="qvyCjxB70agYPjTjunsr-2">
          <mxGeometry width="50" height="50" relative="1" as="geometry">
            <mxPoint x="210" y="330" as="sourcePoint" />
            <mxPoint x="260" y="280" as="targetPoint" />
            <Array as="points">
              <mxPoint x="145" y="220" />
              <mxPoint x="480" y="220" />
            </Array>
          </mxGeometry>
        </mxCell>
        <mxCell id="qvyCjxB70agYPjTjunsr-37" value="" style="endArrow=classic;html=1;rounded=0;labelBorderColor=none;fontSize=22;strokeWidth=3;fillColor=#000000;entryX=0.254;entryY=0.001;entryDx=0;entryDy=0;entryPerimeter=0;" edge="1" parent="1" target="6p9BF7gvtgwccBNczHRR-1">
          <mxGeometry width="50" height="50" relative="1" as="geometry">
            <mxPoint x="200" y="440" as="sourcePoint" />
            <mxPoint x="-70" y="390" as="targetPoint" />
            <Array as="points">
              <mxPoint x="200" y="500" />
              <mxPoint x="353" y="500" />
            </Array>
          </mxGeometry>
        </mxCell>
        <mxCell id="qvyCjxB70agYPjTjunsr-38" value="" style="endArrow=classic;html=1;rounded=0;labelBorderColor=none;fontSize=22;strokeWidth=3;fillColor=#000000;entryX=0.11;entryY=0.004;entryDx=0;entryDy=0;entryPerimeter=0;exitX=0.25;exitY=1;exitDx=0;exitDy=0;" edge="1" parent="1" source="ap4Xrjzt4KRfhGc9eB9q-6" target="ap4Xrjzt4KRfhGc9eB9q-10">
          <mxGeometry width="50" height="50" relative="1" as="geometry">
            <mxPoint x="-110" y="450" as="sourcePoint" />
            <mxPoint x="-60" y="400" as="targetPoint" />
          </mxGeometry>
        </mxCell>
        <mxCell id="qvyCjxB70agYPjTjunsr-39" value="" style="endArrow=classic;html=1;rounded=0;labelBorderColor=none;fontSize=22;strokeWidth=3;fillColor=#000000;exitX=0.761;exitY=0;exitDx=0;exitDy=0;entryX=0.5;entryY=1;entryDx=0;entryDy=0;exitPerimeter=0;" edge="1" parent="1" source="6p9BF7gvtgwccBNczHRR-1" target="qvyCjxB70agYPjTjunsr-17">
          <mxGeometry width="50" height="50" relative="1" as="geometry">
            <mxPoint x="330" y="450" as="sourcePoint" />
            <mxPoint x="380" y="400" as="targetPoint" />
            <Array as="points">
              <mxPoint x="460" y="500" />
              <mxPoint x="405" y="500" />
            </Array>
          </mxGeometry>
        </mxCell>
        <mxCell id="qvyCjxB70agYPjTjunsr-40" value="" style="endArrow=classic;html=1;rounded=0;labelBorderColor=none;fontSize=22;strokeWidth=3;fillColor=#000000;entryX=0.5;entryY=1;entryDx=0;entryDy=0;" edge="1" parent="1" target="qvyCjxB70agYPjTjunsr-18">
          <mxGeometry width="50" height="50" relative="1" as="geometry">
            <mxPoint x="460" y="500" as="sourcePoint" />
            <mxPoint x="330" y="460" as="targetPoint" />
            <Array as="points">
              <mxPoint x="665" y="500" />
            </Array>
          </mxGeometry>
        </mxCell>
        <mxCell id="qvyCjxB70agYPjTjunsr-41" value="" style="endArrow=classic;html=1;rounded=0;labelBorderColor=none;fontSize=22;strokeWidth=3;fillColor=#000000;entryX=0.5;entryY=1;entryDx=0;entryDy=0;" edge="1" parent="1" target="qvyCjxB70agYPjTjunsr-19">
          <mxGeometry width="50" height="50" relative="1" as="geometry">
            <mxPoint x="660" y="500" as="sourcePoint" />
            <mxPoint x="330" y="460" as="targetPoint" />
            <Array as="points">
              <mxPoint x="925" y="500" />
            </Array>
          </mxGeometry>
        </mxCell>
        <mxCell id="qvyCjxB70agYPjTjunsr-43" value="" style="rounded=1;whiteSpace=wrap;html=1;strokeColor=none;shadow=1;" vertex="1" parent="1">
          <mxGeometry x="400" y="-370" width="260" height="180" as="geometry" />
        </mxCell>
        <mxCell id="qvyCjxB70agYPjTjunsr-46" value="&lt;font style=&quot;font-size: 20px&quot;&gt;POST &lt;span style=&quot;font-weight: normal&quot;&gt;/api&lt;/span&gt;&lt;/font&gt;&lt;font style=&quot;font-weight: normal ; font-size: 20px&quot;&gt;/model1/predict&lt;br&gt;&lt;/font&gt;" style="text;html=1;strokeColor=none;fillColor=none;align=center;verticalAlign=middle;whiteSpace=wrap;rounded=0;fontFamily=Verdana;fontStyle=1" vertex="1" parent="1">
          <mxGeometry x="440" y="-340" width="180" height="30" as="geometry" />
        </mxCell>
        <mxCell id="qvyCjxB70agYPjTjunsr-51" value="" style="rounded=1;whiteSpace=wrap;html=1;strokeColor=none;shadow=1;" vertex="1" parent="1">
          <mxGeometry x="730" y="-370" width="260" height="180" as="geometry" />
        </mxCell>
        <mxCell id="qvyCjxB70agYPjTjunsr-52" value="" style="rounded=1;whiteSpace=wrap;html=1;strokeColor=none;shadow=1;" vertex="1" parent="1">
          <mxGeometry x="70" y="-370" width="260" height="180" as="geometry" />
        </mxCell>
        <mxCell id="qvyCjxB70agYPjTjunsr-50" value="&lt;font style=&quot;font-size: 20px&quot;&gt;POST &lt;span style=&quot;font-weight: normal&quot;&gt;/api&lt;/span&gt;&lt;/font&gt;&lt;font style=&quot;font-weight: normal ; font-size: 20px&quot;&gt;/model2/predict&lt;br&gt;&lt;/font&gt;" style="text;html=1;strokeColor=none;fillColor=none;align=center;verticalAlign=middle;whiteSpace=wrap;rounded=0;fontFamily=Verdana;fontStyle=1" vertex="1" parent="1">
          <mxGeometry x="770" y="-340" width="180" height="30" as="geometry" />
        </mxCell>
        <mxCell id="qvyCjxB70agYPjTjunsr-45" value="&lt;font style=&quot;font-weight: normal ; font-size: 20px&quot;&gt;domain.xyz/mlflow&lt;br&gt;&lt;/font&gt;" style="text;html=1;strokeColor=none;fillColor=none;align=center;verticalAlign=middle;whiteSpace=wrap;rounded=0;fontFamily=Verdana;fontStyle=1" vertex="1" parent="1">
          <mxGeometry x="90" y="-340" width="230" height="30" as="geometry" />
        </mxCell>
        <mxCell id="qvyCjxB70agYPjTjunsr-54" value="&lt;font style=&quot;font-size: 24px;&quot;&gt;mlFlow UI&lt;br style=&quot;font-size: 24px;&quot;&gt;&lt;/font&gt;" style="text;html=1;strokeColor=none;fillColor=none;align=center;verticalAlign=middle;whiteSpace=wrap;rounded=0;fontFamily=Verdana;fontStyle=1;fontSize=24;" vertex="1" parent="1">
          <mxGeometry x="90" y="-270" width="230" height="30" as="geometry" />
        </mxCell>
        <mxCell id="qvyCjxB70agYPjTjunsr-56" value="" style="shape=image;verticalLabelPosition=bottom;labelBackgroundColor=default;verticalAlign=top;imageAspect=0;image=data:image/png,iVBORw0KGgoAAAANSUhEUgAAAI4AAABfCAYAAAA+n/+CAAABSGlDQ1BJQ0MgUHJvZmlsZQAAKJFjYGASSSwoyGFhYGDIzSspCnJ3UoiIjFJgf8bAzMDNwMkgysCRmFxc4BgQ4ANUwgCjUcG3awyMIPqyLsislul/Js36++rE0stT+a88YWfBVI8CuFJSi5OB9B8gTksuKCphYGBMAbKVy0sKQOwOIFukCOgoIHsOiJ0OYW8AsZMg7CNgNSFBzkD2DSBbIDkjEWgG4wsgWycJSTwdiQ21FwR4XFx9fBRCjUwNTT0IOJd0UJJaUQKinfMLKosy0zNKFByBoZSq4JmXrKejYGRgZMTAAApziOrPQeCwZBTbhxDLX8LAYPGNgYF5IkIsaQoDw/Y2BgaJWwgxlXkMDPwtDAzbDhUkFiXCHcD4jaU4zdgIwuaxZ2Bgvfv//2cNBgb2iQwMfyf+//978f//fxcDzb/NwHCgEgDAb2Jej+7cagAAAFZlWElmTU0AKgAAAAgAAYdpAAQAAAABAAAAGgAAAAAAA5KGAAcAAAASAAAARKACAAQAAAABAAAAjqADAAQAAAABAAAAXwAAAABBU0NJSQAAAFNjcmVlbnNob3Qf6iX/AAAB1WlUWHRYTUw6Y29tLmFkb2JlLnhtcAAAAAAAPHg6eG1wbWV0YSB4bWxuczp4PSJhZG9iZTpuczptZXRhLyIgeDp4bXB0az0iWE1QIENvcmUgNi4wLjAiPgogICA8cmRmOlJERiB4bWxuczpyZGY9Imh0dHA6Ly93d3cudzMub3JnLzE5OTkvMDIvMjItcmRmLXN5bnRheC1ucyMiPgogICAgICA8cmRmOkRlc2NyaXB0aW9uIHJkZjphYm91dD0iIgogICAgICAgICAgICB4bWxuczpleGlmPSJodHRwOi8vbnMuYWRvYmUuY29tL2V4aWYvMS4wLyI+CiAgICAgICAgIDxleGlmOlBpeGVsWURpbWVuc2lvbj45NTwvZXhpZjpQaXhlbFlEaW1lbnNpb24+CiAgICAgICAgIDxleGlmOlBpeGVsWERpbWVuc2lvbj4xNDI8L2V4aWY6UGl4ZWxYRGltZW5zaW9uPgogICAgICAgICA8ZXhpZjpVc2VyQ29tbWVudD5TY3JlZW5zaG90PC9leGlmOlVzZXJDb21tZW50PgogICAgICA8L3JkZjpEZXNjcmlwdGlvbj4KICAgPC9yZGY6UkRGPgo8L3g6eG1wbWV0YT4KOsRokgAAENlJREFUeAHtXWlwW9UVPpIsybJkWfKW2PEaO06w42yQhECWCQTCnnbYOkBLl5m2/GP6ozP90Q5TZvqnnXZKpz860NJpgbIMSxnKEghbAgSyLyZ2vDveYlveLVmWbPd8V3myZGt3ZMnRPR7p3Xe3d++53zv33HvPkVU1NTWzJElyIEoOqKPML7NLDggOSOBIIMTEAQmcmNgmC0ngSAzExAEJnJjYJgtFDJzC4jIqKCqVHJMcEBxIC8eH4rJK+u4jPyGzJZtOfPUp9XS2hysi01OAA2GBs23nLaTV6ugvv/sVjQwPpgBLZBcj4UDYqUqTlkZjo8MSNJFwM4XyhAWOc9JBOn16CrFEdjUSDoQFjtFkJod9IpK6ZJ4U4kBAHaeiqob23fsAGTKMZMrMooNvv5pCLJFdjYQDAYHjcExQf283ZRhNZDBkkNGUGUldMk8KcUAV7nT8wcefoOycPPrbH3+bQmyRXQ3HgbA6jsvppDRejkuSHPDlQFjgaPV6ck05fcvIsOQAhQXOlHNS6DqSV5IDvhzQ5OfnP+UbMT88NTlJN9y0l7btvJX06QZqa6qfn0XepyAHwirH4EkWn1NVb9pKI0M2+vbM8RRkk+zyfA5EBJz5heS95EBYHUeySHIgEAckcAJxRcaF5YAETlgWyQyBOOAFjslkCpQu4yQHAnLAC5yAqTJSciAIByRwgjBGRofmgAROaP7I1CAckMAJwhgZHZoDSQ2cvJIsWrUuN3QPZGrUHNAaFr8QCmjIFXVLAhRYd1MxGcx6OvV+E+1+tJaaj/dQV8NAgJxEBZXZVL65gL58rc4vvbR2haijp2mQZtwzfmnhbiq3rqKRy+PU3zESLuuSpkfDl2gbplKrqXTbnVS05RYilYqO/PUXflXkV11PBRt2kXlFKU2O2uhy/TfUceygX55Ib+IGnNlZ/vUU5QdUEMR9COJ+LqDTB5tJrVFFDRpUZC0w0ZTDtaDOREdEy5do2rv+vifIlF9Mg+3fUk7Zer+iabp0qth9P9nazlPrF/8la8k6Kt1+J9la62hioMsvbyQ3cQOO2zVD0+5p0Qb31DSH5yQGwIA3L3uVmewjkzTSb/dr6xqWFjnFZhHntLuE1PLNYM7LoJKafLKsBDjc1Nc2TG1nekWWTfsrKN2oI50hjfPkUWFVjohv/KaLbJ2jIpxbnEWFa3Moi+uZHJ+ipmPdNNQ7LtIqbyikNJ2G0vQasq4w0cSok+qPdJCdryCkVd1YJICJF2Pg0ihd/LqTZmc8LwakbNX2IsrMMYi6O873ifaJwvwVii9Knnse/AHVbt5Gh959k745ckiJDnt1Ocbo1Ct/IMuqygXAMeYW0nDnRWo5/Ba5nXYa7Wmlwg27KbdiQ0zAiZuO43ZOEwADcvFVCePeWpBJeaUW6m6wialkRbkV0V6ydY9S54UBGrM5SJ+h9cYrAQwugHHxaCf18jRWuj7fM5CcobdpSJTF8wFI1IMPAAoCqNbdXEyuSTcPeJdo2+otBSINXwDGitVWck64qOV0L+kNWj89C0C0MmAv1fWLevPLLARdTKHavWWkSVOJtqH9eJbRMudeFIovSh3mLCtpdXqyZHtAr8SHu9Z/8C+aHAmsDox0t9CF9/8pQIN6Mqwr+OUw0IStJ1y1AdPjJnHaz132PvDY2w3eMAI5RWYGhZ1aTnkajcHEACg02DVG+PD8Jt5cJV65ppt0YtAgaUC9LYM0zRJOhJs93qYFa7JppG+C8/WLeOULU0XDV50sKUaElHCMOWnz/kqhSzmuSJXJiSmChALp0tMIwG4kz/1KBlVv8xBBkoC06RrKyjcKqYJ+GDL1dPZQCw31ePSr3BIzWVYYaWLYA9xQfBEV8tebL/2dSsorqbH+nBJ11a8Vex6gqYkRGr7kPzaRPihuwAnVAEiR8SEPI5FvfNDhB5xQZZE20DFK5RtXCimDt7qncVBMWeHKIR1TH8CC8loGBaQDKE2rEVd8Tfi0DVMUpi2F9AyOscG5qRXTnEK6DA87oewrUhRTmI6lVjTksI9TQ93paIpElbdk634xndW9+xxLIEdUZZXMcZuqlAfE4wpp0HD0Ek9/M2JFtvW+Kr/pINQzc1iv2nJnJemNWgEi6EhRU2g9n+t1E6QWPt0XbUL6RP2MOBXAyqpk237qPPUJDbJiHCslROJMu6ZZ15h7CzH1REOYbjBd4KNJU9O276yjXNYzlOkgVF0rK6w03DtBF1jhBZms6X46TKiySMNKDdORQpAukFyYugBkUF/rEEslz5us5vbNTodBmlKZzxU/9OByTfnELD5oLiinyr0P00DzGWr98u2AFVrSVZRrUFG/fZZGnMHbnRCJM8CrGwuvWDDY0A+gjPqSOTeDsHICoNRqlQjjHoqrWqOmHfdXU8X1BULRFfE8OFB2fck+4hRKOOpHHgAMNM66BpRVDD6mzPJNc4qxb/lg4b72YQL4sNzPLswkKNbKiso+OikWAcW8mkPbId12PlzDC4E55TlYvb7x9z70OP3y6T/T9l37fKPDhs0Fq8Uy22DNF3mx5MZHnaZlcBvpujt+KJTjvgvHRDzSTHlFfvUeWKOhX+/UUoEpwP6IT86ESBxb55hYTVXvLBGMxlIYKy2FNt5WIfZvlHsor6BzH7fSYPeYUKqxOVh0XZ5Qim0c19sypGQXVyjFANem2yvE/cn3GsUqDaswC4MJ09uMe5Yus3TwUPC360oGccHUAyW4Zk+ZUN7Rl27WsQRxFXWftYuthu0sBacYzF31Nr/luCdj6O/0dAA9LWrvkuq7fky+u8Lr7/u5eNCxfz1NGpZgOqMHwDX3/tTbgMG2Oqp751nv/docNXWNzVK9bW77xJvoE/DaHMMeZ3zcs5fhkx7XoEar9uzvRDZmC9qCKQLLfOWNX5AhRISGlWHsRofbmAxWBfaiQDNBpiEtK9Qu3hKIlazsPTtk818RxlpXpOXMehU9c7uOXjzvpg9bQ7c9IRJH6YiyhFbuo73On56iKQ89azEUDDBKnYsBDepYatDgmdW5KnLyjH+kMzxvEgocNFZS8nDgZO8MnetzUiQnNRI4yTNuCW8JNvqvbPaHbUtCVlVhWyUzJD0HJHCSfoiSs4ESOMk5LknfKgmcpB+i5GygBE5yjkvSt0oCJ+mHKDkbKIGTnOOS9K1a1sDBYSIOEq9F8j1zmt8/DVsH6oyJ7XfcNgDjac0PRmr1aXyyvZJG2TzU1uWxJZ7P4ED3OImH6ekXrwa3RcEp/Fq2K25l01HF1lipC6feOMA890krZWYbhEnGl699qyQv+lq67Q7KY5sZgyWXxnrbqev0Z9TfdErUC8Bcd8ePyFq8VngxONhM9OKHL9Bob9uinxttBXGTOPG05kcnXXyocvSNenFiHk2nVexOEcijwrcOHGDC5MPX8k9J9x6o8sEsmwXxl5Ky+KulaI0wsuqt+4rOvP4MTdnZ0nHnAYLbC2hl9Q7KXFlG9Qf/LdLdkxMi/+KfHH0NcZM4waz5MbWU1OYLzwWYRsCuBW4wJWxwjhPl5hM9bD+iFm88TC1wgg3bYsU+GV3cctcaYQuMMPymmo/PmW8iDuYWJevZ5ILLwngd9sdnP2rxkx6QVgVrckT9Tce7hLcCTDxhHQhwgdaz6cTMFe+FE/+7KE670S+Qmw9JPZ+F5gdbbtxNt9/7ENWfO0lvvfwPkT+SL4Mlj7rOfM7WeR+L7J2MzI0PPElZhRXsodBIeZWbyNZylvobT4r0rlOf0tr93xe2Ni4G0VJS/IATxMvBySdocB3B4JhY1MPQinicYImn2CFjKoGBN6YKgAkAU8wwwZyeRhvbq2iEQRXSfQkGWwDFUA8bvLOdDrwSYLClYoMwhWBSYbIaBODgJlPG9sdwc8GJOTwiYO5RtmGFAKVjDFZ4s173HuSB1MHJPkw6fL03lPozzVn8j1P0ZM3NU6Iiuvac/9IvH3ykZmdnaLzfYygPgyz3pJ1tldKEh8IUu8OoVGpS43eorxXgBLPmhycBQAObX0OmThiqwzAKukN/u8frEu4nMAsFQEBZeUbhQwUjKhCM00ECdCI092VlqzxYDcKTAdMZPtW7SucyXAk1HusSfk9Tky7acOtq8Xz4WMEADK43AA6MvKBDzafPX/J4H8BUta/V42nhm+fwoXept6uDOjtafaOjCusyzFR8w2003NHgdWlRKqja9yhZiqvownvPK1FLfo2bxAnWE0wf8DQAaGAGOmKbEGEAR1FEMWWYGSxQsEEAWaS2O5AukGoADGh8cM6bQkTwF6QGQAJSngllW4kTCYv4mpmeZi+FM7HXwC9W1b5HhDRp/OSVBfWMdDXyFHt17ZEXPCRMxJIDB+2BewqA4bRPiXBmtseeGPEKYQrA9AQSHgPjkbnzQilX7ItR1jeM++VAleyqayliifL+8+QcXyjRMKXhk8Uem4mixABndEooxXYW9Zi6oIdMMjAUqzpIBF9nOsVMMxImYWrBchoG76MDduH8F0m5QHl4/RUoOqK4WL0UVm3cQwW1O6n58zdYEfZ3yHOyA50ha05vgjcmdCC49C41JQQ4mB6w0hngFRGkDHzAhefmld5jwOFJgF+bwKqmdm85K7rw0e4SEsTIijQIXpRql8cLAvcoB+c+KLQwUoeng5b1lWjJNTktprq8sixWi/mPF07wPI2Urt+xh+448D26cO4EvfHic5EWYymzhspvPkBD7F3pGO4Tnggo7BjuF78uMdB0hirZA3Nl9Y3kHOPVIgPMzi680wn4XxvRczViNgTPqExJAJBdrFrmdA2UAkBq9pSKZTd0omEGUMtJz48KwLVF8XpQngA3FdDh/5xnqTVDx99pYH9uC0seNftaOWnjbauVrAuv3n0Yb0AYsGNFhx82WLU2V6yojrx8fmHZIDF6/leUGo2GvRTmPDeCZPWLNuYUij0bbPCJTb4rqW1fvUOXTnxEA02nCb5RZTvu4RfCSPahPqr/4AW/OpbqJqFeDuE6iWUxpi/vplu4AgHS8csU1btL6OjrF4S7SoAscYmyZOfS8GDgHwBY7ANVDEqtPoM3CNm/PkGUEIkTaV8jXUnNrw86E86xxLKfV1mX2ecKPk5LSfECDfowy6u2RIIGbUhq4KCBsRAUa8U9ZXyIdR6eEiVdXQ5ck8DBxlwkfuRXl5WpVVvcDjlTi42p11sJnNQb86vSYy9wltpv/Kq0XlaSMA54gZOwFsgHL0sOSOAsy2FLfKMlcBI/BsuyBQGBk5lloYq1NWz24G8ktSx7KBsdFw4E3McpLCql+x/7GbndLvr8o3fo6GcfxuXhstLly4GAEgdGSL//zZPU3tJIm7ftXL69ky2PGwcCAgdPwy9eDtn6yGhKrP9O3HouK14UB4ICB7WmpxtoyrnQ9HJRT5SFrwkOhATOxPgYGTKMBGs2SZIDvhzQ5OfnP+Ub4Rt22CdoXe1m2rXvblrP/80k02yhtuYG3ywynKIcCClxjKZMMrGOM8g/m9rf201jowsNp1OUbynf7YDLcYUra66rJUidZ//0tBIlr5IDggMhJQ50G7d7aS3n5LgsDw6EBI6TV1Q6nVSMl8dQLm0rQwLHlMl7OOxVKElyYD4HAuo4OKe6+/7HyGLNoZNfH55fRt5LDgQ2Vh8bGaazJ45SE/9rv872FskmyYEFHPD6VS1IkRGSAyE4EFLHCVFOJqU4ByRwUhwAsXZfAidWzqV4OQmcFAdArN2XwImVcyleTgInxQEQa/clcGLlXIqXk8BJcQDE2v3/Az+mRmMdi5+fAAAAAElFTkSuQmCC;imageBorder=none;container=0;portConstraintRotation=0;sketch=0;imageBackground=none;flipV=0;flipH=0;aspect=fixed;rotation=0;clipPath=inset(0% 0% 0% 0% round 16%);" vertex="1" parent="1">
          <mxGeometry x="462.5" y="-290" width="135" height="90.3169014084507" as="geometry" />
        </mxCell>
        <mxCell id="qvyCjxB70agYPjTjunsr-57" value="" style="shape=image;verticalLabelPosition=bottom;labelBackgroundColor=default;verticalAlign=top;aspect=fixed;imageAspect=0;image=data:image/png,iVBORw0KGgoAAAANSUhEUgAAAI0AAABbCAYAAABOOQaXAAABSGlDQ1BJQ0MgUHJvZmlsZQAAKJFjYGASSSwoyGFhYGDIzSspCnJ3UoiIjFJgf8bAzMDNwMkgysCRmFxc4BgQ4ANUwgCjUcG3awyMIPqyLsislul/Js36++rE0stT+a88YWfBVI8CuFJSi5OB9B8gTksuKCphYGBMAbKVy0sKQOwOIFukCOgoIHsOiJ0OYW8AsZMg7CNgNSFBzkD2DSBbIDkjEWgG4wsgWycJSTwdiQ21FwR4XFx9fBRCjUwNTT0IOJd0UJJaUQKinfMLKosy0zNKFByBoZSq4JmXrKejYGRgZMTAAApziOrPQeCwZBTbhxDLX8LAYPGNgYF5IkIsaQoDw/Y2BgaJWwgxlXkMDPwtDAzbDhUkFiXCHcD4jaU4zdgIwuaxZ2Bgvfv//2cNBgb2iQwMfyf+//978f//fxcDzb/NwHCgEgDAb2Jej+7cagAAAFZlWElmTU0AKgAAAAgAAYdpAAQAAAABAAAAGgAAAAAAA5KGAAcAAAASAAAARKACAAQAAAABAAAAjaADAAQAAAABAAAAWwAAAABBU0NJSQAAAFNjcmVlbnNob3SUZbp1AAAB1WlUWHRYTUw6Y29tLmFkb2JlLnhtcAAAAAAAPHg6eG1wbWV0YSB4bWxuczp4PSJhZG9iZTpuczptZXRhLyIgeDp4bXB0az0iWE1QIENvcmUgNi4wLjAiPgogICA8cmRmOlJERiB4bWxuczpyZGY9Imh0dHA6Ly93d3cudzMub3JnLzE5OTkvMDIvMjItcmRmLXN5bnRheC1ucyMiPgogICAgICA8cmRmOkRlc2NyaXB0aW9uIHJkZjphYm91dD0iIgogICAgICAgICAgICB4bWxuczpleGlmPSJodHRwOi8vbnMuYWRvYmUuY29tL2V4aWYvMS4wLyI+CiAgICAgICAgIDxleGlmOlBpeGVsWURpbWVuc2lvbj45MTwvZXhpZjpQaXhlbFlEaW1lbnNpb24+CiAgICAgICAgIDxleGlmOlBpeGVsWERpbWVuc2lvbj4xNDE8L2V4aWY6UGl4ZWxYRGltZW5zaW9uPgogICAgICAgICA8ZXhpZjpVc2VyQ29tbWVudD5TY3JlZW5zaG90PC9leGlmOlVzZXJDb21tZW50PgogICAgICA8L3JkZjpEZXNjcmlwdGlvbj4KICAgPC9yZGY6UkRGPgo8L3g6eG1wbWV0YT4KUUFHrAAAD4tJREFUeAHtXQlwW9UVPdosy5ZtyfKa2LGdOM7iOInJApOtpaTQlmUGKGUGaKFTWko7LS0d2mFggMK00GVYhmE6BcownRY6ZVJKhumUtYQtIQkQAkns2PEW74u8W14kufc++cuSbFlflmXJ8rseWe//t913/v333ff+vV+a8vLySUiSCISBgDaMsrKoREAgIIVGCkLYCEihCRsyWUEKjZSBsBEIS2hWFBYjv6Ao7E5khcRCQK9mOIXFpbj6hu8h3ZKJjw+/g7bmRjXVZJkERUCV0Ozc8xUYDEl48rd3o7/PnqBQyGGpRUDV9KTT6zE40CcFRi2qCV5OldCMjTqQZExOcCjk8NQioEpoUs3pcIwMq21TlktwBILaNGvKyrH/ym/ClJIKc1oGXj/4zwSHQg5PLQJBhcbhGEZXeytSUs0wmVKQak5T26Ysl+AIaNQ8sLzu5tuRacvGnx99MMHhkMNTg4Aqm2ZibAx6WnJLkggwAqqExmA0YmJ8TCImERAIqBKa8bFRYdtIzCQCjIAuJyfngVBQjI+OYvuui7FzzyUwJpvQUFsVqorMT2AEVBnCPP4Meu60cesO9Pf24PRnxxMYEjm0UAioFppQDcn85YOAKptm+cAhR6oGASk0alCSZfwQkELjB4c8UIOAn9CYzWY1dWSZZY6An9Ascyzk8FUiIIVGJVCy2DQCUmimsZAplQhIoVEJlCw2jYAUmmksZEolAkGdsFTWn7PY+l2FMKUb8el/a7HvxgqcO96GlupurFyXhdIdK7x1z3zQhM76Pu/xYiSC8RZp39/fqsfuQt2MZgbGJvHT18dnnF+KJ6IqNJOT9EIK5Z0UnORjoq6mPgz2jIj01kvXQEN/i03BeIuUj1dqXHi3yQ0NDenuXQYcqHKiumcSTgWHSDuIg/pRFRrnhBsup0sM0znuorRbpMcdTvCHaUqORNr3nz5Jh7ILV8Kanwa3y43Ohj7UfdIuBM+YakDlZaVoq7Ejb40VXJY1WMNnHd4mCjZkY9WmbNFne20v8tdm4uSbdRgZ8PgFBePN2wAlbr3jHljJY/HvzzyO1vMNvllB053Dk+CPduo+aKd0td0zbq6UnaLBvbsNeIcEa98qLYw6Dd6sd+Ff1R489q3S4dISHe495NFKNpMG9+0x4PFjE6jv80jetev12FWgRYpeg6oeN549MYHhiaAsLXhGVG0a55gLLCxME/StpNWMYkWZTQhMc1U3uhr7sXJ9Fix5qaKqhm5jY4oBuautOH+6C71tgyjalAtDsuce0Om1KNmah4GuEZw/1YXsogxRXqNcSWpFDW8ZVptwrE9Lt6hhWVUZZsGSrMFuuuivVLtwstONq8p0yKRzTEaa2Sw+0UJKeR2rLqK9NPVdUarDh81uvHTGieIMDb67xSDyFutfVDVN4+fTd/6xg9VhjSmn2IL2ul40nvS0kWo1IafIQgIy5G2n6YtOtJ+zo4PK2QoyYFuZLo6tK9KgJbSrDzdjYswpPhv3FnnrcUINb88/9XsKRbaivuaMX92FOHi11kXaxoUPW1zYlmfEtnwt3iCNE4o2ZmlQ1+cW0x6XNZMX7mWrZ9pQodqJJD+qQhMJY6Y0I5pOdXqbGLI7kJ6V4j3mxFCvQxzztDfumICBb1Mi1kJjdMwCwzRkHxXf4f7r6WoHf6JBjf1TUzXJyYunnWJKU9MPa6m0JA1+eIFHu1hJK5npmJQrpmZ/Nc1EVCZuhUaMys949DuYc9Bs5PIUpZBvWjkXT99vN4TWML780qyPHocHjx66b2rsZC9Om02+RaOSjgOhocFPGY2+I2TNwdpGoWSzEeOj6qw9tmXYOGbNNNA9QlNXutJM2N/84oOJicVbKvfT0pwNXLL1hXHLhjOLB59nGiEInO5JYc/wsY7uDQN9PLl8xkMlFqpHJxv6A3OUEvP/jrnQ8EXNLbFgdGhcrIxGhybEVMPGLxu6vDRnAcjMN6OKbBQ1xFOZY3AcvJwf6R+DwTS/Yf7gzvtgzczC355+DC1N9Wq6jrjMiQ43aNGJa9bpyd5x4xtrdKjrdaNrxHPx2Z65mvK25WnRNDCJb1fokZuqwa/enhbsdKMG9+9NQlW3G48cVnejhcP4/NAMp4cQZdnQLdmaLy4wF60/0Q42cFvOdiOJLjYbsGyztNba0dPcH7S1wKX78Verkb3KQgKnxXDfGLZ8dXXQusEykpNTYEgyIpkiTOdDfJkD+QrVDi82XzzlxGUkLPtp6c3L9QO0ylLotToXVqVr8aNtBrGsZ03y9Kce200ps8Hm2fn6X+N0PSVvIb79fITZn2ZoaHp1shAdRNqGlvYxJunOUzYG59NeVmEGNu5bhSMHztAU5w/wXO3xmzKSKfpioL93rmJRy1OmqNk6IOUrjF+ergLp5s16XJCrxZ1vjUfF1om5pgkccOCx2zW/OZn3eQrLs2ln1rOnw8vycASG+eB4L/7EiubasGONNLUFNoO9dZlavHeeNlajZBzHvdDMQETlif7OYVpye9QzL80dUzvBKqsv6WIPfzgBRxSfWySs0Az3jZItEzstEUupGxyfn3ZWy/P0ZobaGrLcskdACs2yF4HwAZBCEz5my76GFJplLwLhAyCFJnzMln0NKTTLXgTCB0AKTfiYxVUNfsRRtnELtDqPWwinU6L8Us2E3afhK8uefCvX2YTnXyLu2Vz1rZuxqfJCuN0uPPrgXbRD7MJV198CIz3+OHXiGP79j+eiIuBR1TTs8V/5tVLBOEcjcBTCQlL+WhuKKnKDNpmRkyry2QtwMYn9lr9002a6+7XYfMlqlO8rWvDubdl52LJ9F45+8DYeuecn3scdf7z/53j3zVdRXrkDFnpCHw2KqqaJlse/AkRapgnJ5uD+sd1N/Tj6ShW5XczyVE9pJArfypNtz0PWybCfdKthSUfTkUarRUdb84zinXROp9MjPcOKPnv3jPxIT0RVaEJ5/LPzN/vMsGddX8cwzn5EPr1TT6Ev+Hop+tqHwdrCTD6Nve1DOPN+k3CTWLMtn5zF2e2BgKMHkhdds0HgwA8l2bUimRxn2ZdGoXMft9EU5R9Xxc7mxVvyhGsoT121x1q9YTWl21eItvXkPmrNNWOYnltVUd9KJAO7bLA7R+bKNBGqYm8dFPUVx3nXhIuezJOw0McXA4Uf/r7iuu+gonIn3vrPyzj6/lu+WarSypN3fjF4ICXTW+aZhocGA7MW5Diq09NcHv/p2SkUYpJDPjIDIqIgg44LKOJAoaRkA0Ug2NDTQvlnusQFYhcHJnvrEJrPdGO4dxRj5BvAaf4oTud88ZRz7DesY9c2H2J3i7KLCjBGj5EbSMh0NI2s2Z7vLcHCyMLM+XWUbzQxL9O8cXiMjQSGQ2Y4rMaaZ0bhxmxvfe5feVjKaUWYvAUowVqAfXUsmTbf06rT2bkrRFn+dZxAGuzzuHJkZk3zFFgmkuOoapq5PP5ziq3k8O1AzdEWwT9fSD7HmkKhLppe2CGLiTWOrSANHfW9ImSFw1ZSKHqTp6dmEipf8giN51xRRY5vlkhz1AJrt9PvNYoLOkTCx05aHE/FgsI0Ojzu5S2JDOrcEitq4OGVNRnXaavpEWW7z/s7h7HWPHzgtMg7e2Tm9MEZL7/wF6wqKUVN1eeinNp/19x4K3LyC2DLykVnewvqzs6MlGioO4um+hpcf8uPyTG+A92d7Xjpr39S20XIcv63YMjiC1fAlJaEQRIahQbJQ5rP+cYm+UYRsFYxpizMW9M5VJjdSxUNMGj3RHumpE8HHHF/CvG0xFOVQmwrWcn9dPvlZSKgz0y2ldKWUibUt2NkCNWnTlAgYHjedT1dnejuaBO/vcUOYoakmZjo9Qb6WYIcch7rQ1dHK3rt/jdVKN5C5UdV04TqPJz8SDz3Zu3H13vANz1rYf+THO3JEaK8SuIIUF7FsT3GEZ/RpkOvHxRd8PR0+12/xuqyjTh5/LBft6vXboA5PQPPP/U70ji1fnkLcRAzoWHQWc0rZKI0xymx8aiQ78ooOZXyx2dz1ZwllEFpIMg320FJFBvFUyJ7BipRD2qjHbjZvo4h8eFIik1fLqap1RK20EQS6TA0OCBGx3sygZSU7Dk3EqXf6IrZ9MSrGUtuqjA4WdXnlWaKTThfADiiko1MtkH4jra3+K8GRvpHkUorK67PhnUSGaxM/M3H/GHBYIHkdOpUvGvP+QGx6uLVG58v2pxLUQvktOUzJfnyEZjedHGx2H9JyTDSys4kDGVl1RdYNtjxlbQx98uHnsCFe/cHKzLneXOaJyxnlH71L5DGHFPT7dQqKjA/0uOYaRpe6fAKhy+cgVYr3bSKCjRo7WTsrt9dKHZ2+UKzYexLHTRNsDBVXFwibKG6T9rESiyPVj4llXneorxK4w+Hy/BrT5y0JK451oKV5EdcsD4bvaQ1ao+3esuHSvCqiV9OsOOKdRRvNAl2LVUM9lB1lXyOdODfBuXf05oPse+yy+XEbHHmabQyY3I6Z9PM8+nNv07soxFIvXPcdaAD+UVXbwAH/7Mg8RI4XEPTf5jBj7S0inLPM55Vb9CJKAnlbRjBe5k9h99I0dszfyP1hlvvEDZNb08nnnn8N2JX+LZf3A+2d/gtF889+fDsHUd4Nmaaxss3mTCBAuPNm0pES2C4+fkKDNdljRUJRSIw3O8Lzz6BtRsqaOm+lrSKZ6ug5vRJHHrtIKq++DQS1uasG3tNE4Q9DqXlCAJlFzZIMXk6BgjEXtMEGTTvFEuKTwRitnqKTzgkV2oQkEKjBiVZxg8BP6GJtzhuP07lQdwg4Cc0ccOVZCSuEZBCE9eXJz6Zk0ITn9clrrkKKjRpGRasWVfu9XKP61FI5hYVgaD7NCsKinDtTbeJnUZ2VD5y6I1FZUx2Fr8IBNU01ac+wx/u+xka62pQuXNP/I5AcrboCAQVGuaE32rJD8NSzfN/O+aij0h2GHUE5hQa7p1dCmP5CrGoIyA7CBuBkELDYRAmcuZhLzNJEgFGQJeTk/PAXFA4yGVwfUUl9u6/nEJAdwqnn4Zz4f3OwVzty7ylh0BITZNKweRmsmns5CzU1U4BZbPE2Sy9YUuOI0Eg6JJbaZSdfFjbPPPYQ8op+b3MEQipadiWiZav6TLHfskOP6TQjJEDc9IsAVlLdsSS8YgRCCk0IlRi6lfNIu5NNpAQCAS1afi50+XX3gQL/STfJx+9lxCDlYNYGASCCs0gxQGf/PgIailAvbmxbmF6k60kBAJ+0QgJMSI5iKgjENKmiToHsoMlh4AUmiV3yWLPsBSa2F+DJceBFJold8liz7AUmthfgyXHwf8BtveA/AVLDawAAAAASUVORK5CYII=;clipPath=inset(0% 0% 0% 0% round 16%);" vertex="1" parent="1">
          <mxGeometry x="789.5" y="-290" width="141" height="91" as="geometry" />
        </mxCell>
        <mxCell id="qvyCjxB70agYPjTjunsr-58" value="" style="sketch=0;html=1;aspect=fixed;strokeColor=none;shadow=0;align=center;verticalAlign=top;fillColor=#2D9C5E;shape=mxgraph.gcp2.check;glass=0;fontSize=24;" vertex="1" parent="1">
          <mxGeometry x="211.75" y="520" width="60" height="48" as="geometry" />
        </mxCell>
        <mxCell id="qvyCjxB70agYPjTjunsr-59" value="" style="sketch=0;html=1;aspect=fixed;strokeColor=none;shadow=0;align=center;verticalAlign=top;fillColor=#2D9C5E;shape=mxgraph.gcp2.check;glass=0;fontSize=24;" vertex="1" parent="1">
          <mxGeometry x="465" y="520" width="60" height="48" as="geometry" />
        </mxCell>
        <mxCell id="qvyCjxB70agYPjTjunsr-60" value="" style="sketch=0;html=1;aspect=fixed;strokeColor=none;shadow=0;align=center;verticalAlign=top;fillColor=#2D9C5E;shape=mxgraph.gcp2.check;glass=0;fontSize=24;" vertex="1" parent="1">
          <mxGeometry x="211.75" y="247" width="60" height="48" as="geometry" />
        </mxCell>
        <mxCell id="qvyCjxB70agYPjTjunsr-61" value="" style="sketch=0;html=1;aspect=fixed;strokeColor=none;shadow=0;align=center;verticalAlign=top;fillColor=#2D9C5E;shape=mxgraph.gcp2.check;glass=0;fontSize=24;" vertex="1" parent="1">
          <mxGeometry x="1040" y="619.9999999999999" width="60" height="48" as="geometry" />
        </mxCell>
      </root>
    </mxGraphModel>
  </diagram>
</mxfile>
